M48
; DRILL file {KiCad (6.0.1)} date Sat Mar 12 11:24:19 2022
; FORMAT={-:-/ absolute / inch / decimal}
; #@! TF.CreationDate,2022-03-12T11:24:19-03:00
; #@! TF.GenerationSoftware,Kicad,Pcbnew,(6.0.1)
; #@! TF.FileFunction,Plated,1,2,PTH
FMAT,2
INCH
; #@! TA.AperFunction,Plated,PTH,ViaDrill
T1C0.0157
; #@! TA.AperFunction,Plated,PTH,ComponentDrill
T2C0.0295
; #@! TA.AperFunction,Plated,PTH,ComponentDrill
T3C0.0300
; #@! TA.AperFunction,Plated,PTH,ComponentDrill
T4C0.0315
; #@! TA.AperFunction,Plated,PTH,ComponentDrill
T5C0.0394
; #@! TA.AperFunction,Plated,PTH,ComponentDrill
T6C0.0400
; #@! TA.AperFunction,Plated,PTH,ComponentDrill
T7C0.1260
%
G90
G05
T1
X4.37Y-3.21
X4.378Y-4.575
X4.43Y-3.21
X4.543Y-3.25
X4.715Y-3.225
X4.7762Y-4.0052
X4.831Y-4.149
X4.85Y-4.502
X4.924Y-4.499
X4.933Y-4.019
X4.937Y-4.084
X4.99Y-4.79
X5.051Y-3.581
X5.055Y-3.82
X5.076Y-3.96
X5.105Y-3.612
X5.263Y-4.268
X5.334Y-4.308
X5.441Y-4.116
X5.45Y-4.057
X5.457Y-3.946
X5.481Y-3.792
X5.485Y-3.203
X5.505Y-4.002
X5.522Y-3.493
X5.529Y-3.829
X5.561Y-3.195
X5.588Y-3.974
X5.61Y-3.02
X5.673Y-3.587
X5.7015Y-4.2075
X5.946Y-4.207
X5.98Y-2.94
X6.041Y-3.819
X6.056Y-3.184
X6.072Y-5.437
X6.284Y-5.373
T2
X3.7Y-4.95
X3.7Y-5.0
X3.7Y-5.05
X5.2Y-3.33
X5.2Y-3.38
X5.2Y-3.43
X6.68Y-5.35
X6.73Y-5.35
X6.78Y-5.35
T3
X4.28Y-3.39
X4.3825Y-3.5361
X4.4575Y-3.5361
X4.493Y-4.69
X4.79Y-4.82
X4.865Y-4.82
X5.927Y-3.084
X6.5161Y-2.9925
X6.5161Y-3.0675
T4
X4.6235Y-3.059
X4.8157Y-3.059
T5
X4.0378Y-5.0848
X4.0378Y-5.1848
X4.1378Y-5.0848
X4.1378Y-5.1848
X4.552Y-3.8228
X4.552Y-3.9228
X4.552Y-4.0228
X4.552Y-4.1228
X4.552Y-4.2228
X4.552Y-4.3228
X4.552Y-4.4228
T6
X4.138Y-5.5118
X4.138Y-5.6118
X4.138Y-5.7118
X4.138Y-5.8118
X4.238Y-5.5118
X4.238Y-5.6118
X4.238Y-5.7118
X4.238Y-5.8118
X4.338Y-5.5118
X4.338Y-5.6118
X4.338Y-5.7118
X4.338Y-5.8118
X4.438Y-5.5118
X4.438Y-5.6118
X4.438Y-5.7118
X4.438Y-5.8118
X4.538Y-5.5118
X4.538Y-5.6118
X4.538Y-5.7118
X4.538Y-5.8118
X4.638Y-5.5118
X4.638Y-5.6118
X4.638Y-5.7118
X4.638Y-5.8118
X4.738Y-5.5118
X4.738Y-5.6118
X4.738Y-5.7118
X4.738Y-5.8118
X4.838Y-5.5118
X4.838Y-5.6118
X4.838Y-5.7118
X4.838Y-5.8118
X4.938Y-5.5118
X4.938Y-5.6118
X4.938Y-5.7118
X4.938Y-5.8118
X5.038Y-5.5118
X5.038Y-5.6118
X5.038Y-5.7118
X5.038Y-5.8118
X5.138Y-5.5118
X5.138Y-5.6118
X5.138Y-5.7118
X5.138Y-5.8118
X5.238Y-5.5118
X5.238Y-5.6118
X5.238Y-5.7118
X5.238Y-5.8118
X5.338Y-5.5118
X5.338Y-5.6118
X5.338Y-5.7118
X5.338Y-5.8118
X5.438Y-5.5118
X5.438Y-5.6118
X5.438Y-5.7118
X5.438Y-5.8118
X5.538Y-5.5118
X5.538Y-5.6118
X5.538Y-5.7118
X5.538Y-5.8118
X5.638Y-5.5118
X5.638Y-5.6118
X5.638Y-5.7118
X5.638Y-5.8118
X5.738Y-5.5118
X5.738Y-5.6118
X5.738Y-5.7118
X5.738Y-5.8118
X5.838Y-5.5118
X5.838Y-5.6118
X5.838Y-5.7118
X5.838Y-5.8118
X5.938Y-5.5118
X5.938Y-5.6118
X5.938Y-5.7118
X5.938Y-5.8118
X6.038Y-5.5118
X6.038Y-5.6118
X6.038Y-5.7118
X6.038Y-5.8118
X6.138Y-5.5118
X6.138Y-5.6118
X6.138Y-5.7118
X6.138Y-5.8118
X6.238Y-5.5118
X6.238Y-5.6118
X6.238Y-5.7118
X6.238Y-5.8118
X6.338Y-5.5118
X6.338Y-5.6118
X6.338Y-5.7118
X6.338Y-5.8118
X6.438Y-5.5118
X6.438Y-5.6118
X6.438Y-5.7118
X6.438Y-5.8118
X6.538Y-5.5118
X6.538Y-5.6118
X6.538Y-5.7118
X6.538Y-5.8118
X6.638Y-5.5118
X6.638Y-5.6118
X6.638Y-5.7118
X6.638Y-5.8118
T7
X3.838Y-2.4358
X3.938Y-5.811
X6.838Y-5.811
X6.988Y-2.4358
T0
M30
