%TF.GenerationSoftware,KiCad,Pcbnew,(6.0.1)*%
%TF.CreationDate,2022-03-12T11:24:15-03:00*%
%TF.ProjectId,magnetorquer_v2_2,6d61676e-6574-46f7-9271-7565725f7632,rev?*%
%TF.SameCoordinates,Original*%
%TF.FileFunction,Soldermask,Top*%
%TF.FilePolarity,Negative*%
%FSLAX46Y46*%
G04 Gerber Fmt 4.6, Leading zero omitted, Abs format (unit mm)*
G04 Created by KiCad (PCBNEW (6.0.1)) date 2022-03-12 11:24:15*
%MOMM*%
%LPD*%
G01*
G04 APERTURE LIST*
G04 Aperture macros list*
%AMRoundRect*
0 Rectangle with rounded corners*
0 $1 Rounding radius*
0 $2 $3 $4 $5 $6 $7 $8 $9 X,Y pos of 4 corners*
0 Add a 4 corners polygon primitive as box body*
4,1,4,$2,$3,$4,$5,$6,$7,$8,$9,$2,$3,0*
0 Add four circle primitives for the rounded corners*
1,1,$1+$1,$2,$3*
1,1,$1+$1,$4,$5*
1,1,$1+$1,$6,$7*
1,1,$1+$1,$8,$9*
0 Add four rect primitives between the rounded corners*
20,1,$1+$1,$2,$3,$4,$5,0*
20,1,$1+$1,$4,$5,$6,$7,0*
20,1,$1+$1,$6,$7,$8,$9,0*
20,1,$1+$1,$8,$9,$2,$3,0*%
G04 Aperture macros list end*
%ADD10C,0.100000*%
%ADD11R,0.280000X0.500000*%
%ADD12RoundRect,0.250000X0.450000X-0.262500X0.450000X0.262500X-0.450000X0.262500X-0.450000X-0.262500X0*%
%ADD13O,0.299999X1.799999*%
%ADD14O,1.799999X0.299999*%
%ADD15C,1.524000*%
%ADD16R,1.524000X1.524000*%
%ADD17RoundRect,0.250000X0.425000X-0.450000X0.425000X0.450000X-0.425000X0.450000X-0.425000X-0.450000X0*%
%ADD18C,1.600000*%
%ADD19R,1.600000X1.600000*%
%ADD20C,6.350000*%
%ADD21RoundRect,0.250000X-0.250000X-0.475000X0.250000X-0.475000X0.250000X0.475000X-0.250000X0.475000X0*%
%ADD22RoundRect,0.250000X0.475000X-0.250000X0.475000X0.250000X-0.475000X0.250000X-0.475000X-0.250000X0*%
%ADD23RoundRect,0.250000X-0.262500X-0.450000X0.262500X-0.450000X0.262500X0.450000X-0.262500X0.450000X0*%
%ADD24C,1.500000*%
%ADD25R,1.700000X1.700000*%
%ADD26O,1.700000X1.700000*%
%ADD27C,3.500000*%
%ADD28RoundRect,0.250000X0.250000X0.475000X-0.250000X0.475000X-0.250000X-0.475000X0.250000X-0.475000X0*%
%ADD29RoundRect,0.218750X0.218750X0.256250X-0.218750X0.256250X-0.218750X-0.256250X0.218750X-0.256250X0*%
%ADD30R,0.355600X0.558800*%
%ADD31R,0.558800X0.355600*%
%ADD32RoundRect,0.250000X-0.475000X0.250000X-0.475000X-0.250000X0.475000X-0.250000X0.475000X0.250000X0*%
%ADD33R,0.500000X0.280000*%
%ADD34RoundRect,0.249900X-0.275100X-0.400100X0.275100X-0.400100X0.275100X0.400100X-0.275100X0.400100X0*%
%ADD35O,1.050000X1.300000*%
%ADD36RoundRect,0.249900X0.400100X-0.275100X0.400100X0.275100X-0.400100X0.275100X-0.400100X-0.275100X0*%
%ADD37O,1.300000X1.050000*%
%ADD38RoundRect,0.249900X-0.400100X0.275100X-0.400100X-0.275100X0.400100X-0.275100X0.400100X0.275100X0*%
G04 APERTURE END LIST*
D10*
%TO.C,U5*%
X123529700Y-118618000D02*
X123529700Y-117602000D01*
X123529700Y-117602000D02*
X123799600Y-117602000D01*
X123799600Y-117602000D02*
X123799600Y-118618000D01*
X123799600Y-118618000D02*
X123529700Y-118618000D01*
G36*
X123799600Y-118618000D02*
G01*
X123529700Y-118618000D01*
X123529700Y-117602000D01*
X123799600Y-117602000D01*
X123799600Y-118618000D01*
G37*
X123799600Y-118618000D02*
X123529700Y-118618000D01*
X123529700Y-117602000D01*
X123799600Y-117602000D01*
X123799600Y-118618000D01*
X122072400Y-118618000D02*
X122072400Y-117602000D01*
X122072400Y-117602000D02*
X122342300Y-117602000D01*
X122342300Y-117602000D02*
X122342300Y-118618000D01*
X122342300Y-118618000D02*
X122072400Y-118618000D01*
G36*
X122342300Y-118618000D02*
G01*
X122072400Y-118618000D01*
X122072400Y-117602000D01*
X122342300Y-117602000D01*
X122342300Y-118618000D01*
G37*
X122342300Y-118618000D02*
X122072400Y-118618000D01*
X122072400Y-117602000D01*
X122342300Y-117602000D01*
X122342300Y-118618000D01*
X122072400Y-117910000D02*
X122072400Y-117602000D01*
X122072400Y-117602000D02*
X123799600Y-117602000D01*
X123799600Y-117602000D02*
X123799600Y-117910000D01*
X123799600Y-117910000D02*
X122072400Y-117910000D01*
G36*
X123799600Y-117910000D02*
G01*
X122072400Y-117910000D01*
X122072400Y-117602000D01*
X123799600Y-117602000D01*
X123799600Y-117910000D01*
G37*
X123799600Y-117910000D02*
X122072400Y-117910000D01*
X122072400Y-117602000D01*
X123799600Y-117602000D01*
X123799600Y-117910000D01*
X122742300Y-118618000D02*
X122742300Y-117602000D01*
X122742300Y-117602000D02*
X123129700Y-117602000D01*
X123129700Y-117602000D02*
X123129700Y-118618000D01*
X123129700Y-118618000D02*
X122742300Y-118618000D01*
G36*
X123129700Y-118618000D02*
G01*
X122742300Y-118618000D01*
X122742300Y-117602000D01*
X123129700Y-117602000D01*
X123129700Y-118618000D01*
G37*
X123129700Y-118618000D02*
X122742300Y-118618000D01*
X122742300Y-117602000D01*
X123129700Y-117602000D01*
X123129700Y-118618000D01*
X122072400Y-118618000D02*
X122072400Y-118310000D01*
X122072400Y-118310000D02*
X123799600Y-118310000D01*
X123799600Y-118310000D02*
X123799600Y-118618000D01*
X123799600Y-118618000D02*
X122072400Y-118618000D01*
G36*
X123799600Y-118618000D02*
G01*
X122072400Y-118618000D01*
X122072400Y-118310000D01*
X123799600Y-118310000D01*
X123799600Y-118618000D01*
G37*
X123799600Y-118618000D02*
X122072400Y-118618000D01*
X122072400Y-118310000D01*
X123799600Y-118310000D01*
X123799600Y-118618000D01*
%TO.C,U6*%
X111820300Y-85598000D02*
X111820300Y-84582000D01*
X111820300Y-84582000D02*
X112207700Y-84582000D01*
X112207700Y-84582000D02*
X112207700Y-85598000D01*
X112207700Y-85598000D02*
X111820300Y-85598000D01*
G36*
X112207700Y-85598000D02*
G01*
X111820300Y-85598000D01*
X111820300Y-84582000D01*
X112207700Y-84582000D01*
X112207700Y-85598000D01*
G37*
X112207700Y-85598000D02*
X111820300Y-85598000D01*
X111820300Y-84582000D01*
X112207700Y-84582000D01*
X112207700Y-85598000D01*
X112607700Y-85598000D02*
X112607700Y-84582000D01*
X112607700Y-84582000D02*
X112877600Y-84582000D01*
X112877600Y-84582000D02*
X112877600Y-85598000D01*
X112877600Y-85598000D02*
X112607700Y-85598000D01*
G36*
X112877600Y-85598000D02*
G01*
X112607700Y-85598000D01*
X112607700Y-84582000D01*
X112877600Y-84582000D01*
X112877600Y-85598000D01*
G37*
X112877600Y-85598000D02*
X112607700Y-85598000D01*
X112607700Y-84582000D01*
X112877600Y-84582000D01*
X112877600Y-85598000D01*
X111150400Y-85598000D02*
X111150400Y-84582000D01*
X111150400Y-84582000D02*
X111420300Y-84582000D01*
X111420300Y-84582000D02*
X111420300Y-85598000D01*
X111420300Y-85598000D02*
X111150400Y-85598000D01*
G36*
X111420300Y-85598000D02*
G01*
X111150400Y-85598000D01*
X111150400Y-84582000D01*
X111420300Y-84582000D01*
X111420300Y-85598000D01*
G37*
X111420300Y-85598000D02*
X111150400Y-85598000D01*
X111150400Y-84582000D01*
X111420300Y-84582000D01*
X111420300Y-85598000D01*
X111150400Y-84890000D02*
X111150400Y-84582000D01*
X111150400Y-84582000D02*
X112877600Y-84582000D01*
X112877600Y-84582000D02*
X112877600Y-84890000D01*
X112877600Y-84890000D02*
X111150400Y-84890000D01*
G36*
X112877600Y-84890000D02*
G01*
X111150400Y-84890000D01*
X111150400Y-84582000D01*
X112877600Y-84582000D01*
X112877600Y-84890000D01*
G37*
X112877600Y-84890000D02*
X111150400Y-84890000D01*
X111150400Y-84582000D01*
X112877600Y-84582000D01*
X112877600Y-84890000D01*
X111150400Y-85598000D02*
X111150400Y-85290000D01*
X111150400Y-85290000D02*
X112877600Y-85290000D01*
X112877600Y-85290000D02*
X112877600Y-85598000D01*
X112877600Y-85598000D02*
X111150400Y-85598000D01*
G36*
X112877600Y-85598000D02*
G01*
X111150400Y-85598000D01*
X111150400Y-85290000D01*
X112877600Y-85290000D01*
X112877600Y-85598000D01*
G37*
X112877600Y-85598000D02*
X111150400Y-85598000D01*
X111150400Y-85290000D01*
X112877600Y-85290000D01*
X112877600Y-85598000D01*
%TO.C,U4*%
X150114000Y-76555600D02*
X149806000Y-76555600D01*
X149806000Y-76555600D02*
X149806000Y-74828400D01*
X149806000Y-74828400D02*
X150114000Y-74828400D01*
X150114000Y-74828400D02*
X150114000Y-76555600D01*
G36*
X150114000Y-76555600D02*
G01*
X149806000Y-76555600D01*
X149806000Y-74828400D01*
X150114000Y-74828400D01*
X150114000Y-76555600D01*
G37*
X150114000Y-76555600D02*
X149806000Y-76555600D01*
X149806000Y-74828400D01*
X150114000Y-74828400D01*
X150114000Y-76555600D01*
X150114000Y-75098300D02*
X149098000Y-75098300D01*
X149098000Y-75098300D02*
X149098000Y-74828400D01*
X149098000Y-74828400D02*
X150114000Y-74828400D01*
X150114000Y-74828400D02*
X150114000Y-75098300D01*
G36*
X150114000Y-75098300D02*
G01*
X149098000Y-75098300D01*
X149098000Y-74828400D01*
X150114000Y-74828400D01*
X150114000Y-75098300D01*
G37*
X150114000Y-75098300D02*
X149098000Y-75098300D01*
X149098000Y-74828400D01*
X150114000Y-74828400D01*
X150114000Y-75098300D01*
X150114000Y-76555600D02*
X149098000Y-76555600D01*
X149098000Y-76555600D02*
X149098000Y-76285700D01*
X149098000Y-76285700D02*
X150114000Y-76285700D01*
X150114000Y-76285700D02*
X150114000Y-76555600D01*
G36*
X150114000Y-76555600D02*
G01*
X149098000Y-76555600D01*
X149098000Y-76285700D01*
X150114000Y-76285700D01*
X150114000Y-76555600D01*
G37*
X150114000Y-76555600D02*
X149098000Y-76555600D01*
X149098000Y-76285700D01*
X150114000Y-76285700D01*
X150114000Y-76555600D01*
X149406000Y-76555600D02*
X149098000Y-76555600D01*
X149098000Y-76555600D02*
X149098000Y-74828400D01*
X149098000Y-74828400D02*
X149406000Y-74828400D01*
X149406000Y-74828400D02*
X149406000Y-76555600D01*
G36*
X149406000Y-76555600D02*
G01*
X149098000Y-76555600D01*
X149098000Y-74828400D01*
X149406000Y-74828400D01*
X149406000Y-76555600D01*
G37*
X149406000Y-76555600D02*
X149098000Y-76555600D01*
X149098000Y-74828400D01*
X149406000Y-74828400D01*
X149406000Y-76555600D01*
X150114000Y-75885700D02*
X149098000Y-75885700D01*
X149098000Y-75885700D02*
X149098000Y-75498300D01*
X149098000Y-75498300D02*
X150114000Y-75498300D01*
X150114000Y-75498300D02*
X150114000Y-75885700D01*
G36*
X150114000Y-75885700D02*
G01*
X149098000Y-75885700D01*
X149098000Y-75498300D01*
X150114000Y-75498300D01*
X150114000Y-75885700D01*
G37*
X150114000Y-75885700D02*
X149098000Y-75885700D01*
X149098000Y-75498300D01*
X150114000Y-75498300D01*
X150114000Y-75885700D01*
%TD*%
D11*
%TO.C,U5*%
X122185999Y-119060001D03*
X122686000Y-119060001D03*
X123186000Y-119060001D03*
X123686001Y-119060001D03*
X123686001Y-117159999D03*
X123186000Y-117159999D03*
X122686000Y-117159999D03*
X122185999Y-117159999D03*
%TD*%
D12*
%TO.C,R6*%
X157861000Y-132179700D03*
X157861000Y-130354700D03*
%TD*%
%TO.C,R5*%
X155854400Y-130354700D03*
X155854400Y-132179700D03*
%TD*%
%TO.C,R4*%
X153873200Y-132154300D03*
X153873200Y-130329300D03*
%TD*%
%TO.C,R3*%
X151866600Y-132154300D03*
X151866600Y-130329300D03*
%TD*%
D13*
%TO.C,U1*%
X125155000Y-94932398D03*
X125655001Y-94932398D03*
X126155000Y-94932398D03*
X126655002Y-94932398D03*
X127155001Y-94932398D03*
X127655000Y-94932398D03*
X128155002Y-94932398D03*
X128655000Y-94932398D03*
X129155002Y-94932398D03*
X129655001Y-94932398D03*
X130155000Y-94932398D03*
X130655002Y-94932398D03*
X131155001Y-94932398D03*
X131655002Y-94932398D03*
X132155001Y-94932398D03*
X132655000Y-94932398D03*
D14*
X134455002Y-96732397D03*
X134455002Y-97232399D03*
X134455002Y-97732398D03*
X134455002Y-98232399D03*
X134455002Y-98732398D03*
X134455002Y-99232397D03*
X134455002Y-99732399D03*
X134455002Y-100232398D03*
X134455002Y-100732400D03*
X134455002Y-101232398D03*
X134455002Y-101732397D03*
X134455002Y-102232399D03*
X134455002Y-102732398D03*
X134455002Y-103232400D03*
X134455002Y-103732399D03*
X134455002Y-104232398D03*
D13*
X132655000Y-106032399D03*
X132155001Y-106032399D03*
X131655002Y-106032399D03*
X131155001Y-106032399D03*
X130655002Y-106032399D03*
X130155000Y-106032399D03*
X129655001Y-106032399D03*
X129155002Y-106032399D03*
X128655000Y-106032399D03*
X128155002Y-106032399D03*
X127655000Y-106032399D03*
X127155001Y-106032399D03*
X126655002Y-106032399D03*
X126155000Y-106032399D03*
X125655001Y-106032399D03*
X125155000Y-106032399D03*
D14*
X123355001Y-104232398D03*
X123355001Y-103732399D03*
X123355001Y-103232400D03*
X123355001Y-102732398D03*
X123355001Y-102232399D03*
X123355001Y-101732397D03*
X123355001Y-101232398D03*
X123355001Y-100732400D03*
X123355001Y-100232398D03*
X123355001Y-99732399D03*
X123355001Y-99232397D03*
X123355001Y-98732398D03*
X123355001Y-98232399D03*
X123355001Y-97732398D03*
X123355001Y-97232399D03*
X123355001Y-96732397D03*
%TD*%
D15*
%TO.C,*%
X114122200Y-119126000D03*
%TD*%
%TO.C,L2*%
X121666000Y-122428000D03*
D16*
X123571000Y-122428000D03*
%TD*%
D17*
%TO.C,C3*%
X147878800Y-98606600D03*
X147878800Y-95906600D03*
%TD*%
D18*
%TO.C,U2*%
X105105200Y-147619400D03*
X105105200Y-145079400D03*
X107645200Y-147619400D03*
X107645200Y-145079400D03*
X110185200Y-147619400D03*
X110185200Y-145079400D03*
X112725200Y-147619400D03*
X112725200Y-145079400D03*
X115265200Y-147619400D03*
X115265200Y-145079400D03*
X117805200Y-147619400D03*
X117805200Y-145079400D03*
X120345200Y-147619400D03*
X120345200Y-145079400D03*
X122885200Y-147619400D03*
X122885200Y-145079400D03*
X125425200Y-147619400D03*
X125425200Y-145079400D03*
X127965200Y-147619400D03*
X127965200Y-145079400D03*
X130505200Y-147619400D03*
X130505200Y-145079400D03*
X133045200Y-147619400D03*
X133045200Y-145079400D03*
X135585200Y-147619400D03*
X135585200Y-145079400D03*
X138125200Y-147619400D03*
X138125200Y-145079400D03*
X140665200Y-147619400D03*
X140665200Y-145079400D03*
X143205200Y-147619400D03*
X143205200Y-145079400D03*
X145745200Y-147619400D03*
X145745200Y-145079400D03*
X148285200Y-147619400D03*
X148285200Y-145079400D03*
X150825200Y-147619400D03*
X150825200Y-145079400D03*
X153365200Y-147619400D03*
X153365200Y-145079400D03*
X155905200Y-147619400D03*
X155905200Y-145079400D03*
X158445200Y-147619400D03*
X158445200Y-145079400D03*
X160985200Y-147619400D03*
X160985200Y-145079400D03*
X163525200Y-147619400D03*
X163525200Y-145079400D03*
X166065200Y-147619400D03*
X166065200Y-145079400D03*
X168605200Y-147619400D03*
X168605200Y-145079400D03*
X105105200Y-142539400D03*
X105105200Y-139999400D03*
X107645200Y-142539400D03*
X107645200Y-139999400D03*
X110185200Y-142539400D03*
X110185200Y-139999400D03*
X112725200Y-142539400D03*
X112725200Y-139999400D03*
X115265200Y-142539400D03*
X115265200Y-139999400D03*
X117805200Y-142539400D03*
X117805200Y-139999400D03*
X120345200Y-142539400D03*
X120345200Y-139999400D03*
X122885200Y-142539400D03*
X122885200Y-139999400D03*
X125425200Y-142539400D03*
X125425200Y-139999400D03*
X127965200Y-142539400D03*
X127965200Y-139999400D03*
X130505200Y-142539400D03*
X130505200Y-139999400D03*
X133045200Y-142539400D03*
X133045200Y-139999400D03*
X135585200Y-142539400D03*
X135585200Y-139999400D03*
X138125200Y-142539400D03*
X138125200Y-139999400D03*
X140665200Y-142539400D03*
X140665200Y-139999400D03*
X143205200Y-142539400D03*
X143205200Y-139999400D03*
X145745200Y-142539400D03*
X145745200Y-139999400D03*
X148285200Y-142539400D03*
X148285200Y-139999400D03*
X150825200Y-142539400D03*
X150825200Y-139999400D03*
X153365200Y-142539400D03*
X153365200Y-139999400D03*
X155905200Y-142539400D03*
X155905200Y-139999400D03*
X158445200Y-142539400D03*
X158445200Y-139999400D03*
X160985200Y-142539400D03*
X160985200Y-139999400D03*
X163525200Y-142539400D03*
X163525200Y-139999400D03*
X166065200Y-142539400D03*
X166065200Y-139999400D03*
X168605200Y-142539400D03*
D19*
X168605200Y-139999400D03*
D20*
X97485200Y-61869400D03*
X177495200Y-61869400D03*
X173685200Y-147599400D03*
X100025200Y-147599400D03*
%TD*%
D21*
%TO.C,C2*%
X120995400Y-83972400D03*
X122895400Y-83972400D03*
%TD*%
%TO.C,C7*%
X123764000Y-91059000D03*
X125664000Y-91059000D03*
%TD*%
D22*
%TO.C,C5*%
X136906000Y-95006200D03*
X136906000Y-93106200D03*
%TD*%
D23*
%TO.C,R2*%
X154129100Y-93548200D03*
X155954100Y-93548200D03*
%TD*%
D24*
%TO.C,Y1*%
X117438000Y-77698600D03*
X122318000Y-77698600D03*
%TD*%
D22*
%TO.C,C4*%
X120853200Y-106893400D03*
X120853200Y-104993400D03*
%TD*%
D11*
%TO.C,U6*%
X111263999Y-86040001D03*
X111764000Y-86040001D03*
X112264000Y-86040001D03*
X112764001Y-86040001D03*
X112764001Y-84139999D03*
X112264000Y-84139999D03*
X111764000Y-84139999D03*
X111263999Y-84139999D03*
%TD*%
D25*
%TO.C,J1*%
X115620800Y-97099200D03*
D26*
X115620800Y-99639200D03*
X115620800Y-102179200D03*
X115620800Y-104719200D03*
X115620800Y-107259200D03*
X115620800Y-109799200D03*
X115620800Y-112339200D03*
%TD*%
D22*
%TO.C,C6*%
X140335000Y-95006200D03*
X140335000Y-93106200D03*
%TD*%
D23*
%TO.C,R1*%
X154154500Y-90195400D03*
X155979500Y-90195400D03*
%TD*%
D27*
%TO.C,REF\u002A\u002A*%
X107804400Y-60548800D03*
X99607400Y-139473800D03*
X160547400Y-70816800D03*
X99607400Y-114773800D03*
X158567400Y-107743800D03*
X98082400Y-107773800D03*
X178277400Y-133816800D03*
X98147400Y-70201800D03*
X167047400Y-64316800D03*
X156577400Y-114773800D03*
X157596400Y-60520800D03*
X158567400Y-79319800D03*
%TD*%
D28*
%TO.C,C1*%
X119034600Y-83972400D03*
X117134600Y-83972400D03*
%TD*%
D29*
%TO.C,D2*%
X164084100Y-93548200D03*
X162509100Y-93548200D03*
%TD*%
%TO.C,D1*%
X164084100Y-90195400D03*
X162509100Y-90195400D03*
%TD*%
D30*
%TO.C,U3*%
X141413611Y-106095800D03*
X141913737Y-106095800D03*
X142413863Y-106095800D03*
X142913989Y-106095800D03*
D31*
X143129000Y-105376726D03*
X143129000Y-104876600D03*
X143129000Y-104376474D03*
D30*
X142913989Y-103657400D03*
X142413863Y-103657400D03*
X141913737Y-103657400D03*
X141413611Y-103657400D03*
D31*
X141198600Y-104376474D03*
X141198600Y-104876600D03*
X141198600Y-105376726D03*
%TD*%
D15*
%TO.C,*%
X108712000Y-86106000D03*
%TD*%
%TO.C,L3*%
X111315500Y-89816000D03*
D16*
X113220500Y-89816000D03*
%TD*%
D15*
%TO.C,*%
X150545800Y-78333600D03*
%TD*%
D22*
%TO.C,C9*%
X147943800Y-107416600D03*
X147943800Y-105516600D03*
%TD*%
D32*
%TO.C,C8*%
X147933800Y-101836600D03*
X147933800Y-103736600D03*
%TD*%
D15*
%TO.C,L1*%
X165508000Y-77914500D03*
D16*
X165508000Y-76009500D03*
%TD*%
D33*
%TO.C,U4*%
X150556001Y-76442001D03*
X150556001Y-75942000D03*
X150556001Y-75442000D03*
X150556001Y-74941999D03*
X148655999Y-74941999D03*
X148655999Y-75442000D03*
X148655999Y-75942000D03*
X148655999Y-76442001D03*
%TD*%
D25*
%TO.C,J2*%
X102560200Y-129154000D03*
D26*
X105100200Y-129154000D03*
X102560200Y-131694000D03*
X105100200Y-131694000D03*
%TD*%
D34*
%TO.C,IC1*%
X169672000Y-135890000D03*
D35*
X170942000Y-135890000D03*
X172212000Y-135890000D03*
%TD*%
D36*
%TO.C,IC2*%
X93980000Y-128270000D03*
D37*
X93980000Y-127000000D03*
X93980000Y-125730000D03*
%TD*%
D38*
%TO.C,IC3*%
X132080000Y-84582000D03*
D37*
X132080000Y-85852000D03*
X132080000Y-87122000D03*
%TD*%
M02*
