%TF.GenerationSoftware,KiCad,Pcbnew,(6.0.1)*%
%TF.CreationDate,2022-03-12T11:24:15-03:00*%
%TF.ProjectId,magnetorquer_v2_2,6d61676e-6574-46f7-9271-7565725f7632,rev?*%
%TF.SameCoordinates,Original*%
%TF.FileFunction,Paste,Top*%
%TF.FilePolarity,Positive*%
%FSLAX46Y46*%
G04 Gerber Fmt 4.6, Leading zero omitted, Abs format (unit mm)*
G04 Created by KiCad (PCBNEW (6.0.1)) date 2022-03-12 11:24:15*
%MOMM*%
%LPD*%
G01*
G04 APERTURE LIST*
G04 Aperture macros list*
%AMRoundRect*
0 Rectangle with rounded corners*
0 $1 Rounding radius*
0 $2 $3 $4 $5 $6 $7 $8 $9 X,Y pos of 4 corners*
0 Add a 4 corners polygon primitive as box body*
4,1,4,$2,$3,$4,$5,$6,$7,$8,$9,$2,$3,0*
0 Add four circle primitives for the rounded corners*
1,1,$1+$1,$2,$3*
1,1,$1+$1,$4,$5*
1,1,$1+$1,$6,$7*
1,1,$1+$1,$8,$9*
0 Add four rect primitives between the rounded corners*
20,1,$1+$1,$2,$3,$4,$5,0*
20,1,$1+$1,$4,$5,$6,$7,0*
20,1,$1+$1,$6,$7,$8,$9,0*
20,1,$1+$1,$8,$9,$2,$3,0*%
G04 Aperture macros list end*
%ADD10C,0.100000*%
%ADD11R,0.280000X0.500000*%
%ADD12RoundRect,0.250000X0.450000X-0.262500X0.450000X0.262500X-0.450000X0.262500X-0.450000X-0.262500X0*%
%ADD13O,0.299999X1.799999*%
%ADD14O,1.799999X0.299999*%
%ADD15RoundRect,0.250000X0.425000X-0.450000X0.425000X0.450000X-0.425000X0.450000X-0.425000X-0.450000X0*%
%ADD16RoundRect,0.250000X-0.250000X-0.475000X0.250000X-0.475000X0.250000X0.475000X-0.250000X0.475000X0*%
%ADD17RoundRect,0.250000X0.475000X-0.250000X0.475000X0.250000X-0.475000X0.250000X-0.475000X-0.250000X0*%
%ADD18RoundRect,0.250000X-0.262500X-0.450000X0.262500X-0.450000X0.262500X0.450000X-0.262500X0.450000X0*%
%ADD19RoundRect,0.250000X0.250000X0.475000X-0.250000X0.475000X-0.250000X-0.475000X0.250000X-0.475000X0*%
%ADD20RoundRect,0.218750X0.218750X0.256250X-0.218750X0.256250X-0.218750X-0.256250X0.218750X-0.256250X0*%
%ADD21R,0.355600X0.558800*%
%ADD22R,0.558800X0.355600*%
%ADD23RoundRect,0.250000X-0.475000X0.250000X-0.475000X-0.250000X0.475000X-0.250000X0.475000X0.250000X0*%
%ADD24R,0.500000X0.280000*%
G04 APERTURE END LIST*
D10*
%TO.C,U5*%
X123429700Y-117868579D02*
X123571121Y-118010000D01*
X123571121Y-118010000D02*
X123661170Y-118010000D01*
X123661170Y-118010000D02*
X123661170Y-117740430D01*
X123661170Y-117740430D02*
X123429700Y-117740430D01*
X123429700Y-117740430D02*
X123429700Y-117868579D01*
G36*
X123661170Y-118010000D02*
G01*
X123571121Y-118010000D01*
X123429700Y-117868579D01*
X123429700Y-117740430D01*
X123661170Y-117740430D01*
X123661170Y-118010000D01*
G37*
X123661170Y-118010000D02*
X123571121Y-118010000D01*
X123429700Y-117868579D01*
X123429700Y-117740430D01*
X123661170Y-117740430D01*
X123661170Y-118010000D01*
X122210830Y-118479570D02*
X122442300Y-118479570D01*
X122442300Y-118479570D02*
X122442300Y-118351421D01*
X122442300Y-118351421D02*
X122300879Y-118210000D01*
X122300879Y-118210000D02*
X122210830Y-118210000D01*
X122210830Y-118210000D02*
X122210830Y-118479570D01*
G36*
X122442300Y-118351421D02*
G01*
X122442300Y-118479570D01*
X122210830Y-118479570D01*
X122210830Y-118210000D01*
X122300879Y-118210000D01*
X122442300Y-118351421D01*
G37*
X122442300Y-118351421D02*
X122442300Y-118479570D01*
X122210830Y-118479570D01*
X122210830Y-118210000D01*
X122300879Y-118210000D01*
X122442300Y-118351421D01*
X122210830Y-118010000D02*
X122300879Y-118010000D01*
X122300879Y-118010000D02*
X122442300Y-117868579D01*
X122442300Y-117868579D02*
X122442300Y-117740430D01*
X122442300Y-117740430D02*
X122210830Y-117740430D01*
X122210830Y-117740430D02*
X122210830Y-118010000D01*
G36*
X122442300Y-117868579D02*
G01*
X122300879Y-118010000D01*
X122210830Y-118010000D01*
X122210830Y-117740430D01*
X122442300Y-117740430D01*
X122442300Y-117868579D01*
G37*
X122442300Y-117868579D02*
X122300879Y-118010000D01*
X122210830Y-118010000D01*
X122210830Y-117740430D01*
X122442300Y-117740430D01*
X122442300Y-117868579D01*
X123429700Y-118479570D02*
X123661170Y-118479570D01*
X123661170Y-118479570D02*
X123661170Y-118210000D01*
X123661170Y-118210000D02*
X123571121Y-118210000D01*
X123571121Y-118210000D02*
X123429700Y-118351421D01*
X123429700Y-118351421D02*
X123429700Y-118479570D01*
G36*
X123661170Y-118479570D02*
G01*
X123429700Y-118479570D01*
X123429700Y-118351421D01*
X123571121Y-118210000D01*
X123661170Y-118210000D01*
X123661170Y-118479570D01*
G37*
X123661170Y-118479570D02*
X123429700Y-118479570D01*
X123429700Y-118351421D01*
X123571121Y-118210000D01*
X123661170Y-118210000D01*
X123661170Y-118479570D01*
X122642300Y-118479570D02*
X123229700Y-118479570D01*
X123229700Y-118479570D02*
X123229700Y-118351421D01*
X123229700Y-118351421D02*
X123088279Y-118210000D01*
X123088279Y-118210000D02*
X122783721Y-118210000D01*
X122783721Y-118210000D02*
X122642300Y-118351421D01*
X122642300Y-118351421D02*
X122642300Y-118479570D01*
G36*
X123229700Y-118351421D02*
G01*
X123229700Y-118479570D01*
X122642300Y-118479570D01*
X122642300Y-118351421D01*
X122783721Y-118210000D01*
X123088279Y-118210000D01*
X123229700Y-118351421D01*
G37*
X123229700Y-118351421D02*
X123229700Y-118479570D01*
X122642300Y-118479570D01*
X122642300Y-118351421D01*
X122783721Y-118210000D01*
X123088279Y-118210000D01*
X123229700Y-118351421D01*
X122642300Y-117868579D02*
X122783721Y-118010000D01*
X122783721Y-118010000D02*
X123088279Y-118010000D01*
X123088279Y-118010000D02*
X123229700Y-117868579D01*
X123229700Y-117868579D02*
X123229700Y-117740430D01*
X123229700Y-117740430D02*
X122642300Y-117740430D01*
X122642300Y-117740430D02*
X122642300Y-117868579D01*
G36*
X123229700Y-117868579D02*
G01*
X123088279Y-118010000D01*
X122783721Y-118010000D01*
X122642300Y-117868579D01*
X122642300Y-117740430D01*
X123229700Y-117740430D01*
X123229700Y-117868579D01*
G37*
X123229700Y-117868579D02*
X123088279Y-118010000D01*
X122783721Y-118010000D01*
X122642300Y-117868579D01*
X122642300Y-117740430D01*
X123229700Y-117740430D01*
X123229700Y-117868579D01*
%TO.C,U6*%
X111288830Y-84990000D02*
X111378879Y-84990000D01*
X111378879Y-84990000D02*
X111520300Y-84848579D01*
X111520300Y-84848579D02*
X111520300Y-84720430D01*
X111520300Y-84720430D02*
X111288830Y-84720430D01*
X111288830Y-84720430D02*
X111288830Y-84990000D01*
G36*
X111520300Y-84848579D02*
G01*
X111378879Y-84990000D01*
X111288830Y-84990000D01*
X111288830Y-84720430D01*
X111520300Y-84720430D01*
X111520300Y-84848579D01*
G37*
X111520300Y-84848579D02*
X111378879Y-84990000D01*
X111288830Y-84990000D01*
X111288830Y-84720430D01*
X111520300Y-84720430D01*
X111520300Y-84848579D01*
X111288830Y-85459570D02*
X111520300Y-85459570D01*
X111520300Y-85459570D02*
X111520300Y-85331421D01*
X111520300Y-85331421D02*
X111378879Y-85190000D01*
X111378879Y-85190000D02*
X111288830Y-85190000D01*
X111288830Y-85190000D02*
X111288830Y-85459570D01*
G36*
X111520300Y-85331421D02*
G01*
X111520300Y-85459570D01*
X111288830Y-85459570D01*
X111288830Y-85190000D01*
X111378879Y-85190000D01*
X111520300Y-85331421D01*
G37*
X111520300Y-85331421D02*
X111520300Y-85459570D01*
X111288830Y-85459570D01*
X111288830Y-85190000D01*
X111378879Y-85190000D01*
X111520300Y-85331421D01*
X111720300Y-85459570D02*
X112307700Y-85459570D01*
X112307700Y-85459570D02*
X112307700Y-85331421D01*
X112307700Y-85331421D02*
X112166279Y-85190000D01*
X112166279Y-85190000D02*
X111861721Y-85190000D01*
X111861721Y-85190000D02*
X111720300Y-85331421D01*
X111720300Y-85331421D02*
X111720300Y-85459570D01*
G36*
X112307700Y-85331421D02*
G01*
X112307700Y-85459570D01*
X111720300Y-85459570D01*
X111720300Y-85331421D01*
X111861721Y-85190000D01*
X112166279Y-85190000D01*
X112307700Y-85331421D01*
G37*
X112307700Y-85331421D02*
X112307700Y-85459570D01*
X111720300Y-85459570D01*
X111720300Y-85331421D01*
X111861721Y-85190000D01*
X112166279Y-85190000D01*
X112307700Y-85331421D01*
X112507700Y-84848579D02*
X112649121Y-84990000D01*
X112649121Y-84990000D02*
X112739170Y-84990000D01*
X112739170Y-84990000D02*
X112739170Y-84720430D01*
X112739170Y-84720430D02*
X112507700Y-84720430D01*
X112507700Y-84720430D02*
X112507700Y-84848579D01*
G36*
X112739170Y-84990000D02*
G01*
X112649121Y-84990000D01*
X112507700Y-84848579D01*
X112507700Y-84720430D01*
X112739170Y-84720430D01*
X112739170Y-84990000D01*
G37*
X112739170Y-84990000D02*
X112649121Y-84990000D01*
X112507700Y-84848579D01*
X112507700Y-84720430D01*
X112739170Y-84720430D01*
X112739170Y-84990000D01*
X112507700Y-85459570D02*
X112739170Y-85459570D01*
X112739170Y-85459570D02*
X112739170Y-85190000D01*
X112739170Y-85190000D02*
X112649121Y-85190000D01*
X112649121Y-85190000D02*
X112507700Y-85331421D01*
X112507700Y-85331421D02*
X112507700Y-85459570D01*
G36*
X112739170Y-85459570D02*
G01*
X112507700Y-85459570D01*
X112507700Y-85331421D01*
X112649121Y-85190000D01*
X112739170Y-85190000D01*
X112739170Y-85459570D01*
G37*
X112739170Y-85459570D02*
X112507700Y-85459570D01*
X112507700Y-85331421D01*
X112649121Y-85190000D01*
X112739170Y-85190000D01*
X112739170Y-85459570D01*
X111720300Y-84848579D02*
X111861721Y-84990000D01*
X111861721Y-84990000D02*
X112166279Y-84990000D01*
X112166279Y-84990000D02*
X112307700Y-84848579D01*
X112307700Y-84848579D02*
X112307700Y-84720430D01*
X112307700Y-84720430D02*
X111720300Y-84720430D01*
X111720300Y-84720430D02*
X111720300Y-84848579D01*
G36*
X112307700Y-84848579D02*
G01*
X112166279Y-84990000D01*
X111861721Y-84990000D01*
X111720300Y-84848579D01*
X111720300Y-84720430D01*
X112307700Y-84720430D01*
X112307700Y-84848579D01*
G37*
X112307700Y-84848579D02*
X112166279Y-84990000D01*
X111861721Y-84990000D01*
X111720300Y-84848579D01*
X111720300Y-84720430D01*
X112307700Y-84720430D01*
X112307700Y-84848579D01*
%TO.C,U4*%
X149364579Y-75985700D02*
X149506000Y-75844279D01*
X149506000Y-75844279D02*
X149506000Y-75539721D01*
X149506000Y-75539721D02*
X149364579Y-75398300D01*
X149364579Y-75398300D02*
X149236430Y-75398300D01*
X149236430Y-75398300D02*
X149236430Y-75985700D01*
X149236430Y-75985700D02*
X149364579Y-75985700D01*
G36*
X149506000Y-75539721D02*
G01*
X149506000Y-75844279D01*
X149364579Y-75985700D01*
X149236430Y-75985700D01*
X149236430Y-75398300D01*
X149364579Y-75398300D01*
X149506000Y-75539721D01*
G37*
X149506000Y-75539721D02*
X149506000Y-75844279D01*
X149364579Y-75985700D01*
X149236430Y-75985700D01*
X149236430Y-75398300D01*
X149364579Y-75398300D01*
X149506000Y-75539721D01*
X149975570Y-75198300D02*
X149975570Y-74966830D01*
X149975570Y-74966830D02*
X149706000Y-74966830D01*
X149706000Y-74966830D02*
X149706000Y-75056879D01*
X149706000Y-75056879D02*
X149847421Y-75198300D01*
X149847421Y-75198300D02*
X149975570Y-75198300D01*
G36*
X149975570Y-75198300D02*
G01*
X149847421Y-75198300D01*
X149706000Y-75056879D01*
X149706000Y-74966830D01*
X149975570Y-74966830D01*
X149975570Y-75198300D01*
G37*
X149975570Y-75198300D02*
X149847421Y-75198300D01*
X149706000Y-75056879D01*
X149706000Y-74966830D01*
X149975570Y-74966830D01*
X149975570Y-75198300D01*
X149506000Y-76417170D02*
X149506000Y-76327121D01*
X149506000Y-76327121D02*
X149364579Y-76185700D01*
X149364579Y-76185700D02*
X149236430Y-76185700D01*
X149236430Y-76185700D02*
X149236430Y-76417170D01*
X149236430Y-76417170D02*
X149506000Y-76417170D01*
G36*
X149506000Y-76327121D02*
G01*
X149506000Y-76417170D01*
X149236430Y-76417170D01*
X149236430Y-76185700D01*
X149364579Y-76185700D01*
X149506000Y-76327121D01*
G37*
X149506000Y-76327121D02*
X149506000Y-76417170D01*
X149236430Y-76417170D01*
X149236430Y-76185700D01*
X149364579Y-76185700D01*
X149506000Y-76327121D01*
X149975570Y-76417170D02*
X149975570Y-76185700D01*
X149975570Y-76185700D02*
X149847421Y-76185700D01*
X149847421Y-76185700D02*
X149706000Y-76327121D01*
X149706000Y-76327121D02*
X149706000Y-76417170D01*
X149706000Y-76417170D02*
X149975570Y-76417170D01*
G36*
X149975570Y-76417170D02*
G01*
X149706000Y-76417170D01*
X149706000Y-76327121D01*
X149847421Y-76185700D01*
X149975570Y-76185700D01*
X149975570Y-76417170D01*
G37*
X149975570Y-76417170D02*
X149706000Y-76417170D01*
X149706000Y-76327121D01*
X149847421Y-76185700D01*
X149975570Y-76185700D01*
X149975570Y-76417170D01*
X149364579Y-75198300D02*
X149506000Y-75056879D01*
X149506000Y-75056879D02*
X149506000Y-74966830D01*
X149506000Y-74966830D02*
X149236430Y-74966830D01*
X149236430Y-74966830D02*
X149236430Y-75198300D01*
X149236430Y-75198300D02*
X149364579Y-75198300D01*
G36*
X149506000Y-75056879D02*
G01*
X149364579Y-75198300D01*
X149236430Y-75198300D01*
X149236430Y-74966830D01*
X149506000Y-74966830D01*
X149506000Y-75056879D01*
G37*
X149506000Y-75056879D02*
X149364579Y-75198300D01*
X149236430Y-75198300D01*
X149236430Y-74966830D01*
X149506000Y-74966830D01*
X149506000Y-75056879D01*
X149975570Y-75985700D02*
X149975570Y-75398300D01*
X149975570Y-75398300D02*
X149847421Y-75398300D01*
X149847421Y-75398300D02*
X149706000Y-75539721D01*
X149706000Y-75539721D02*
X149706000Y-75844279D01*
X149706000Y-75844279D02*
X149847421Y-75985700D01*
X149847421Y-75985700D02*
X149975570Y-75985700D01*
G36*
X149975570Y-75985700D02*
G01*
X149847421Y-75985700D01*
X149706000Y-75844279D01*
X149706000Y-75539721D01*
X149847421Y-75398300D01*
X149975570Y-75398300D01*
X149975570Y-75985700D01*
G37*
X149975570Y-75985700D02*
X149847421Y-75985700D01*
X149706000Y-75844279D01*
X149706000Y-75539721D01*
X149847421Y-75398300D01*
X149975570Y-75398300D01*
X149975570Y-75985700D01*
%TD*%
D11*
%TO.C,U5*%
X122185999Y-119060001D03*
X122686000Y-119060001D03*
X123186000Y-119060001D03*
X123686001Y-119060001D03*
X123686001Y-117159999D03*
X123186000Y-117159999D03*
X122686000Y-117159999D03*
X122185999Y-117159999D03*
%TD*%
D12*
%TO.C,R6*%
X157861000Y-132179700D03*
X157861000Y-130354700D03*
%TD*%
%TO.C,R5*%
X155854400Y-130354700D03*
X155854400Y-132179700D03*
%TD*%
%TO.C,R4*%
X153873200Y-132154300D03*
X153873200Y-130329300D03*
%TD*%
%TO.C,R3*%
X151866600Y-132154300D03*
X151866600Y-130329300D03*
%TD*%
D13*
%TO.C,U1*%
X125155000Y-94932398D03*
X125655001Y-94932398D03*
X126155000Y-94932398D03*
X126655002Y-94932398D03*
X127155001Y-94932398D03*
X127655000Y-94932398D03*
X128155002Y-94932398D03*
X128655000Y-94932398D03*
X129155002Y-94932398D03*
X129655001Y-94932398D03*
X130155000Y-94932398D03*
X130655002Y-94932398D03*
X131155001Y-94932398D03*
X131655002Y-94932398D03*
X132155001Y-94932398D03*
X132655000Y-94932398D03*
D14*
X134455002Y-96732397D03*
X134455002Y-97232399D03*
X134455002Y-97732398D03*
X134455002Y-98232399D03*
X134455002Y-98732398D03*
X134455002Y-99232397D03*
X134455002Y-99732399D03*
X134455002Y-100232398D03*
X134455002Y-100732400D03*
X134455002Y-101232398D03*
X134455002Y-101732397D03*
X134455002Y-102232399D03*
X134455002Y-102732398D03*
X134455002Y-103232400D03*
X134455002Y-103732399D03*
X134455002Y-104232398D03*
D13*
X132655000Y-106032399D03*
X132155001Y-106032399D03*
X131655002Y-106032399D03*
X131155001Y-106032399D03*
X130655002Y-106032399D03*
X130155000Y-106032399D03*
X129655001Y-106032399D03*
X129155002Y-106032399D03*
X128655000Y-106032399D03*
X128155002Y-106032399D03*
X127655000Y-106032399D03*
X127155001Y-106032399D03*
X126655002Y-106032399D03*
X126155000Y-106032399D03*
X125655001Y-106032399D03*
X125155000Y-106032399D03*
D14*
X123355001Y-104232398D03*
X123355001Y-103732399D03*
X123355001Y-103232400D03*
X123355001Y-102732398D03*
X123355001Y-102232399D03*
X123355001Y-101732397D03*
X123355001Y-101232398D03*
X123355001Y-100732400D03*
X123355001Y-100232398D03*
X123355001Y-99732399D03*
X123355001Y-99232397D03*
X123355001Y-98732398D03*
X123355001Y-98232399D03*
X123355001Y-97732398D03*
X123355001Y-97232399D03*
X123355001Y-96732397D03*
%TD*%
D15*
%TO.C,C3*%
X147878800Y-98606600D03*
X147878800Y-95906600D03*
%TD*%
D16*
%TO.C,C2*%
X120995400Y-83972400D03*
X122895400Y-83972400D03*
%TD*%
%TO.C,C7*%
X123764000Y-91059000D03*
X125664000Y-91059000D03*
%TD*%
D17*
%TO.C,C5*%
X136906000Y-95006200D03*
X136906000Y-93106200D03*
%TD*%
D18*
%TO.C,R2*%
X154129100Y-93548200D03*
X155954100Y-93548200D03*
%TD*%
D17*
%TO.C,C4*%
X120853200Y-106893400D03*
X120853200Y-104993400D03*
%TD*%
D11*
%TO.C,U6*%
X111263999Y-86040001D03*
X111764000Y-86040001D03*
X112264000Y-86040001D03*
X112764001Y-86040001D03*
X112764001Y-84139999D03*
X112264000Y-84139999D03*
X111764000Y-84139999D03*
X111263999Y-84139999D03*
%TD*%
D17*
%TO.C,C6*%
X140335000Y-95006200D03*
X140335000Y-93106200D03*
%TD*%
D18*
%TO.C,R1*%
X154154500Y-90195400D03*
X155979500Y-90195400D03*
%TD*%
D19*
%TO.C,C1*%
X119034600Y-83972400D03*
X117134600Y-83972400D03*
%TD*%
D20*
%TO.C,D2*%
X164084100Y-93548200D03*
X162509100Y-93548200D03*
%TD*%
%TO.C,D1*%
X164084100Y-90195400D03*
X162509100Y-90195400D03*
%TD*%
D21*
%TO.C,U3*%
X141413611Y-106095800D03*
X141913737Y-106095800D03*
X142413863Y-106095800D03*
X142913989Y-106095800D03*
D22*
X143129000Y-105376726D03*
X143129000Y-104876600D03*
X143129000Y-104376474D03*
D21*
X142913989Y-103657400D03*
X142413863Y-103657400D03*
X141913737Y-103657400D03*
X141413611Y-103657400D03*
D22*
X141198600Y-104376474D03*
X141198600Y-104876600D03*
X141198600Y-105376726D03*
%TD*%
D17*
%TO.C,C9*%
X147943800Y-107416600D03*
X147943800Y-105516600D03*
%TD*%
D23*
%TO.C,C8*%
X147933800Y-101836600D03*
X147933800Y-103736600D03*
%TD*%
D24*
%TO.C,U4*%
X150556001Y-76442001D03*
X150556001Y-75942000D03*
X150556001Y-75442000D03*
X150556001Y-74941999D03*
X148655999Y-74941999D03*
X148655999Y-75442000D03*
X148655999Y-75942000D03*
X148655999Y-76442001D03*
%TD*%
M02*
