%TF.GenerationSoftware,KiCad,Pcbnew,(6.0.1)*%
%TF.CreationDate,2022-03-12T11:24:15-03:00*%
%TF.ProjectId,magnetorquer_v2_2,6d61676e-6574-46f7-9271-7565725f7632,rev?*%
%TF.SameCoordinates,Original*%
%TF.FileFunction,Legend,Top*%
%TF.FilePolarity,Positive*%
%FSLAX46Y46*%
G04 Gerber Fmt 4.6, Leading zero omitted, Abs format (unit mm)*
G04 Created by KiCad (PCBNEW (6.0.1)) date 2022-03-12 11:24:15*
%MOMM*%
%LPD*%
G01*
G04 APERTURE LIST*
%ADD10C,0.150000*%
%ADD11C,0.120000*%
%ADD12C,0.200000*%
%ADD13C,0.100000*%
G04 APERTURE END LIST*
D10*
X112168085Y-107741980D02*
X112168085Y-106741980D01*
X112739514Y-107741980D01*
X112739514Y-106741980D01*
X113787133Y-107646742D02*
X113739514Y-107694361D01*
X113596657Y-107741980D01*
X113501419Y-107741980D01*
X113358561Y-107694361D01*
X113263323Y-107599123D01*
X113215704Y-107503885D01*
X113168085Y-107313409D01*
X113168085Y-107170552D01*
X113215704Y-106980076D01*
X113263323Y-106884838D01*
X113358561Y-106789600D01*
X113501419Y-106741980D01*
X113596657Y-106741980D01*
X113739514Y-106789600D01*
X113787133Y-106837219D01*
X112787133Y-102382580D02*
X112453800Y-101906390D01*
X112215704Y-102382580D02*
X112215704Y-101382580D01*
X112596657Y-101382580D01*
X112691895Y-101430200D01*
X112739514Y-101477819D01*
X112787133Y-101573057D01*
X112787133Y-101715914D01*
X112739514Y-101811152D01*
X112691895Y-101858771D01*
X112596657Y-101906390D01*
X112215704Y-101906390D01*
X113120466Y-101382580D02*
X113787133Y-102382580D01*
X113787133Y-101382580D02*
X113120466Y-102382580D01*
X108234504Y-97127961D02*
X108377361Y-97175580D01*
X108615457Y-97175580D01*
X108710695Y-97127961D01*
X108758314Y-97080342D01*
X108805933Y-96985104D01*
X108805933Y-96889866D01*
X108758314Y-96794628D01*
X108710695Y-96747009D01*
X108615457Y-96699390D01*
X108424980Y-96651771D01*
X108329742Y-96604152D01*
X108282123Y-96556533D01*
X108234504Y-96461295D01*
X108234504Y-96366057D01*
X108282123Y-96270819D01*
X108329742Y-96223200D01*
X108424980Y-96175580D01*
X108663076Y-96175580D01*
X108805933Y-96223200D01*
X109567838Y-96651771D02*
X109710695Y-96699390D01*
X109758314Y-96747009D01*
X109805933Y-96842247D01*
X109805933Y-96985104D01*
X109758314Y-97080342D01*
X109710695Y-97127961D01*
X109615457Y-97175580D01*
X109234504Y-97175580D01*
X109234504Y-96175580D01*
X109567838Y-96175580D01*
X109663076Y-96223200D01*
X109710695Y-96270819D01*
X109758314Y-96366057D01*
X109758314Y-96461295D01*
X109710695Y-96556533D01*
X109663076Y-96604152D01*
X109567838Y-96651771D01*
X109234504Y-96651771D01*
X110139266Y-96175580D02*
X110377361Y-97175580D01*
X110567838Y-96461295D01*
X110758314Y-97175580D01*
X110996409Y-96175580D01*
X111234504Y-96175580D02*
X111805933Y-96175580D01*
X111520219Y-97175580D02*
X111520219Y-96175580D01*
X112710695Y-97080342D02*
X112663076Y-97127961D01*
X112520219Y-97175580D01*
X112424980Y-97175580D01*
X112282123Y-97127961D01*
X112186885Y-97032723D01*
X112139266Y-96937485D01*
X112091647Y-96747009D01*
X112091647Y-96604152D01*
X112139266Y-96413676D01*
X112186885Y-96318438D01*
X112282123Y-96223200D01*
X112424980Y-96175580D01*
X112520219Y-96175580D01*
X112663076Y-96223200D01*
X112710695Y-96270819D01*
X113139266Y-97175580D02*
X113139266Y-96175580D01*
X113710695Y-97175580D02*
X113282123Y-96604152D01*
X113710695Y-96175580D02*
X113139266Y-96747009D01*
X98202904Y-131430780D02*
X98821952Y-131430780D01*
X98488619Y-131811733D01*
X98631476Y-131811733D01*
X98726714Y-131859352D01*
X98774333Y-131906971D01*
X98821952Y-132002209D01*
X98821952Y-132240304D01*
X98774333Y-132335542D01*
X98726714Y-132383161D01*
X98631476Y-132430780D01*
X98345761Y-132430780D01*
X98250523Y-132383161D01*
X98202904Y-132335542D01*
X99107666Y-131430780D02*
X99441000Y-132430780D01*
X99774333Y-131430780D01*
X100012428Y-131430780D02*
X100631476Y-131430780D01*
X100298142Y-131811733D01*
X100441000Y-131811733D01*
X100536238Y-131859352D01*
X100583857Y-131906971D01*
X100631476Y-132002209D01*
X100631476Y-132240304D01*
X100583857Y-132335542D01*
X100536238Y-132383161D01*
X100441000Y-132430780D01*
X100155285Y-132430780D01*
X100060047Y-132383161D01*
X100012428Y-132335542D01*
X108455152Y-99769561D02*
X108598009Y-99817180D01*
X108836104Y-99817180D01*
X108931342Y-99769561D01*
X108978961Y-99721942D01*
X109026580Y-99626704D01*
X109026580Y-99531466D01*
X108978961Y-99436228D01*
X108931342Y-99388609D01*
X108836104Y-99340990D01*
X108645628Y-99293371D01*
X108550390Y-99245752D01*
X108502771Y-99198133D01*
X108455152Y-99102895D01*
X108455152Y-99007657D01*
X108502771Y-98912419D01*
X108550390Y-98864800D01*
X108645628Y-98817180D01*
X108883723Y-98817180D01*
X109026580Y-98864800D01*
X109788485Y-99293371D02*
X109931342Y-99340990D01*
X109978961Y-99388609D01*
X110026580Y-99483847D01*
X110026580Y-99626704D01*
X109978961Y-99721942D01*
X109931342Y-99769561D01*
X109836104Y-99817180D01*
X109455152Y-99817180D01*
X109455152Y-98817180D01*
X109788485Y-98817180D01*
X109883723Y-98864800D01*
X109931342Y-98912419D01*
X109978961Y-99007657D01*
X109978961Y-99102895D01*
X109931342Y-99198133D01*
X109883723Y-99245752D01*
X109788485Y-99293371D01*
X109455152Y-99293371D01*
X110359914Y-98817180D02*
X110598009Y-99817180D01*
X110788485Y-99102895D01*
X110978961Y-99817180D01*
X111217057Y-98817180D01*
X111598009Y-99817180D02*
X111598009Y-98817180D01*
X111836104Y-98817180D01*
X111978961Y-98864800D01*
X112074200Y-98960038D01*
X112121819Y-99055276D01*
X112169438Y-99245752D01*
X112169438Y-99388609D01*
X112121819Y-99579085D01*
X112074200Y-99674323D01*
X111978961Y-99769561D01*
X111836104Y-99817180D01*
X111598009Y-99817180D01*
X112598009Y-99817180D02*
X112598009Y-98817180D01*
X113264676Y-98817180D02*
X113455152Y-98817180D01*
X113550390Y-98864800D01*
X113645628Y-98960038D01*
X113693247Y-99150514D01*
X113693247Y-99483847D01*
X113645628Y-99674323D01*
X113550390Y-99769561D01*
X113455152Y-99817180D01*
X113264676Y-99817180D01*
X113169438Y-99769561D01*
X113074200Y-99674323D01*
X113026580Y-99483847D01*
X113026580Y-99150514D01*
X113074200Y-98960038D01*
X113169438Y-98864800D01*
X113264676Y-98817180D01*
X107530923Y-131329180D02*
X107054733Y-131329180D01*
X107007114Y-131805371D01*
X107054733Y-131757752D01*
X107149971Y-131710133D01*
X107388066Y-131710133D01*
X107483304Y-131757752D01*
X107530923Y-131805371D01*
X107578542Y-131900609D01*
X107578542Y-132138704D01*
X107530923Y-132233942D01*
X107483304Y-132281561D01*
X107388066Y-132329180D01*
X107149971Y-132329180D01*
X107054733Y-132281561D01*
X107007114Y-132233942D01*
X107864257Y-131329180D02*
X108197590Y-132329180D01*
X108530923Y-131329180D01*
X112191895Y-104049580D02*
X112763323Y-104049580D01*
X112477609Y-105049580D02*
X112477609Y-104049580D01*
X113001419Y-104049580D02*
X113668085Y-105049580D01*
X113668085Y-104049580D02*
X113001419Y-105049580D01*
X110125095Y-109672428D02*
X110887000Y-109672428D01*
X110506047Y-110053380D02*
X110506047Y-109291476D01*
X111267952Y-109053380D02*
X111887000Y-109053380D01*
X111553666Y-109434333D01*
X111696523Y-109434333D01*
X111791761Y-109481952D01*
X111839380Y-109529571D01*
X111887000Y-109624809D01*
X111887000Y-109862904D01*
X111839380Y-109958142D01*
X111791761Y-110005761D01*
X111696523Y-110053380D01*
X111410809Y-110053380D01*
X111315571Y-110005761D01*
X111267952Y-109958142D01*
X112172714Y-109053380D02*
X112506047Y-110053380D01*
X112839380Y-109053380D01*
X113077476Y-109053380D02*
X113696523Y-109053380D01*
X113363190Y-109434333D01*
X113506047Y-109434333D01*
X113601285Y-109481952D01*
X113648904Y-109529571D01*
X113696523Y-109624809D01*
X113696523Y-109862904D01*
X113648904Y-109958142D01*
X113601285Y-110005761D01*
X113506047Y-110053380D01*
X113220333Y-110053380D01*
X113125095Y-110005761D01*
X113077476Y-109958142D01*
X111607695Y-111615600D02*
X111512457Y-111567980D01*
X111369600Y-111567980D01*
X111226742Y-111615600D01*
X111131504Y-111710838D01*
X111083885Y-111806076D01*
X111036266Y-111996552D01*
X111036266Y-112139409D01*
X111083885Y-112329885D01*
X111131504Y-112425123D01*
X111226742Y-112520361D01*
X111369600Y-112567980D01*
X111464838Y-112567980D01*
X111607695Y-112520361D01*
X111655314Y-112472742D01*
X111655314Y-112139409D01*
X111464838Y-112139409D01*
X112083885Y-112567980D02*
X112083885Y-111567980D01*
X112655314Y-112567980D01*
X112655314Y-111567980D01*
X113131504Y-112567980D02*
X113131504Y-111567980D01*
X113369600Y-111567980D01*
X113512457Y-111615600D01*
X113607695Y-111710838D01*
X113655314Y-111806076D01*
X113702933Y-111996552D01*
X113702933Y-112139409D01*
X113655314Y-112329885D01*
X113607695Y-112425123D01*
X113512457Y-112520361D01*
X113369600Y-112567980D01*
X113131504Y-112567980D01*
%TO.C,U5*%
X123912380Y-116331904D02*
X124721904Y-116331904D01*
X124817142Y-116284285D01*
X124864761Y-116236666D01*
X124912380Y-116141428D01*
X124912380Y-115950952D01*
X124864761Y-115855714D01*
X124817142Y-115808095D01*
X124721904Y-115760476D01*
X123912380Y-115760476D01*
X123912380Y-114808095D02*
X123912380Y-115284285D01*
X124388571Y-115331904D01*
X124340952Y-115284285D01*
X124293333Y-115189047D01*
X124293333Y-114950952D01*
X124340952Y-114855714D01*
X124388571Y-114808095D01*
X124483809Y-114760476D01*
X124721904Y-114760476D01*
X124817142Y-114808095D01*
X124864761Y-114855714D01*
X124912380Y-114950952D01*
X124912380Y-115189047D01*
X124864761Y-115284285D01*
X124817142Y-115331904D01*
X126182380Y-120887428D02*
X125182380Y-120887428D01*
X125182380Y-120649333D01*
X125230000Y-120506476D01*
X125325238Y-120411238D01*
X125420476Y-120363619D01*
X125610952Y-120316000D01*
X125753809Y-120316000D01*
X125944285Y-120363619D01*
X126039523Y-120411238D01*
X126134761Y-120506476D01*
X126182380Y-120649333D01*
X126182380Y-120887428D01*
X126182380Y-119316000D02*
X125706190Y-119649333D01*
X126182380Y-119887428D02*
X125182380Y-119887428D01*
X125182380Y-119506476D01*
X125230000Y-119411238D01*
X125277619Y-119363619D01*
X125372857Y-119316000D01*
X125515714Y-119316000D01*
X125610952Y-119363619D01*
X125658571Y-119411238D01*
X125706190Y-119506476D01*
X125706190Y-119887428D01*
X125182380Y-119030285D02*
X126182380Y-118696952D01*
X125182380Y-118363619D01*
X125610952Y-117887428D02*
X125563333Y-117982666D01*
X125515714Y-118030285D01*
X125420476Y-118077904D01*
X125372857Y-118077904D01*
X125277619Y-118030285D01*
X125230000Y-117982666D01*
X125182380Y-117887428D01*
X125182380Y-117696952D01*
X125230000Y-117601714D01*
X125277619Y-117554095D01*
X125372857Y-117506476D01*
X125420476Y-117506476D01*
X125515714Y-117554095D01*
X125563333Y-117601714D01*
X125610952Y-117696952D01*
X125610952Y-117887428D01*
X125658571Y-117982666D01*
X125706190Y-118030285D01*
X125801428Y-118077904D01*
X125991904Y-118077904D01*
X126087142Y-118030285D01*
X126134761Y-117982666D01*
X126182380Y-117887428D01*
X126182380Y-117696952D01*
X126134761Y-117601714D01*
X126087142Y-117554095D01*
X125991904Y-117506476D01*
X125801428Y-117506476D01*
X125706190Y-117554095D01*
X125658571Y-117601714D01*
X125610952Y-117696952D01*
X125610952Y-116935047D02*
X125563333Y-117030285D01*
X125515714Y-117077904D01*
X125420476Y-117125523D01*
X125372857Y-117125523D01*
X125277619Y-117077904D01*
X125230000Y-117030285D01*
X125182380Y-116935047D01*
X125182380Y-116744571D01*
X125230000Y-116649333D01*
X125277619Y-116601714D01*
X125372857Y-116554095D01*
X125420476Y-116554095D01*
X125515714Y-116601714D01*
X125563333Y-116649333D01*
X125610952Y-116744571D01*
X125610952Y-116935047D01*
X125658571Y-117030285D01*
X125706190Y-117077904D01*
X125801428Y-117125523D01*
X125991904Y-117125523D01*
X126087142Y-117077904D01*
X126134761Y-117030285D01*
X126182380Y-116935047D01*
X126182380Y-116744571D01*
X126134761Y-116649333D01*
X126087142Y-116601714D01*
X125991904Y-116554095D01*
X125801428Y-116554095D01*
X125706190Y-116601714D01*
X125658571Y-116649333D01*
X125610952Y-116744571D01*
X125182380Y-116220761D02*
X125182380Y-115601714D01*
X125563333Y-115935047D01*
X125563333Y-115792190D01*
X125610952Y-115696952D01*
X125658571Y-115649333D01*
X125753809Y-115601714D01*
X125991904Y-115601714D01*
X126087142Y-115649333D01*
X126134761Y-115696952D01*
X126182380Y-115792190D01*
X126182380Y-116077904D01*
X126134761Y-116173142D01*
X126087142Y-116220761D01*
X125182380Y-115268380D02*
X125182380Y-114601714D01*
X126182380Y-115030285D01*
X126087142Y-113649333D02*
X126134761Y-113696952D01*
X126182380Y-113839809D01*
X126182380Y-113935047D01*
X126134761Y-114077904D01*
X126039523Y-114173142D01*
X125944285Y-114220761D01*
X125753809Y-114268380D01*
X125610952Y-114268380D01*
X125420476Y-114220761D01*
X125325238Y-114173142D01*
X125230000Y-114077904D01*
X125182380Y-113935047D01*
X125182380Y-113839809D01*
X125230000Y-113696952D01*
X125277619Y-113649333D01*
X126182380Y-113220761D02*
X125182380Y-113220761D01*
X125182380Y-112982666D01*
X125230000Y-112839809D01*
X125325238Y-112744571D01*
X125420476Y-112696952D01*
X125610952Y-112649333D01*
X125753809Y-112649333D01*
X125944285Y-112696952D01*
X126039523Y-112744571D01*
X126134761Y-112839809D01*
X126182380Y-112982666D01*
X126182380Y-113220761D01*
X126134761Y-112268380D02*
X126182380Y-112125523D01*
X126182380Y-111887428D01*
X126134761Y-111792190D01*
X126087142Y-111744571D01*
X125991904Y-111696952D01*
X125896666Y-111696952D01*
X125801428Y-111744571D01*
X125753809Y-111792190D01*
X125706190Y-111887428D01*
X125658571Y-112077904D01*
X125610952Y-112173142D01*
X125563333Y-112220761D01*
X125468095Y-112268380D01*
X125372857Y-112268380D01*
X125277619Y-112220761D01*
X125230000Y-112173142D01*
X125182380Y-112077904D01*
X125182380Y-111839809D01*
X125230000Y-111696952D01*
X125230000Y-110744571D02*
X125182380Y-110839809D01*
X125182380Y-110982666D01*
X125230000Y-111125523D01*
X125325238Y-111220761D01*
X125420476Y-111268380D01*
X125610952Y-111316000D01*
X125753809Y-111316000D01*
X125944285Y-111268380D01*
X126039523Y-111220761D01*
X126134761Y-111125523D01*
X126182380Y-110982666D01*
X126182380Y-110887428D01*
X126134761Y-110744571D01*
X126087142Y-110696952D01*
X125753809Y-110696952D01*
X125753809Y-110887428D01*
X126182380Y-109696952D02*
X125706190Y-110030285D01*
X126182380Y-110268380D02*
X125182380Y-110268380D01*
X125182380Y-109887428D01*
X125230000Y-109792190D01*
X125277619Y-109744571D01*
X125372857Y-109696952D01*
X125515714Y-109696952D01*
X125610952Y-109744571D01*
X125658571Y-109792190D01*
X125706190Y-109887428D01*
X125706190Y-110268380D01*
%TO.C,R6*%
X158313380Y-128817666D02*
X157837190Y-129151000D01*
X158313380Y-129389095D02*
X157313380Y-129389095D01*
X157313380Y-129008142D01*
X157361000Y-128912904D01*
X157408619Y-128865285D01*
X157503857Y-128817666D01*
X157646714Y-128817666D01*
X157741952Y-128865285D01*
X157789571Y-128912904D01*
X157837190Y-129008142D01*
X157837190Y-129389095D01*
X157313380Y-127960523D02*
X157313380Y-128151000D01*
X157361000Y-128246238D01*
X157408619Y-128293857D01*
X157551476Y-128389095D01*
X157741952Y-128436714D01*
X158122904Y-128436714D01*
X158218142Y-128389095D01*
X158265761Y-128341476D01*
X158313380Y-128246238D01*
X158313380Y-128055761D01*
X158265761Y-127960523D01*
X158218142Y-127912904D01*
X158122904Y-127865285D01*
X157884809Y-127865285D01*
X157789571Y-127912904D01*
X157741952Y-127960523D01*
X157694333Y-128055761D01*
X157694333Y-128246238D01*
X157741952Y-128341476D01*
X157789571Y-128389095D01*
X157884809Y-128436714D01*
%TO.C,R5*%
X156306780Y-128766866D02*
X155830590Y-129100200D01*
X156306780Y-129338295D02*
X155306780Y-129338295D01*
X155306780Y-128957342D01*
X155354400Y-128862104D01*
X155402019Y-128814485D01*
X155497257Y-128766866D01*
X155640114Y-128766866D01*
X155735352Y-128814485D01*
X155782971Y-128862104D01*
X155830590Y-128957342D01*
X155830590Y-129338295D01*
X155306780Y-127862104D02*
X155306780Y-128338295D01*
X155782971Y-128385914D01*
X155735352Y-128338295D01*
X155687733Y-128243057D01*
X155687733Y-128004961D01*
X155735352Y-127909723D01*
X155782971Y-127862104D01*
X155878209Y-127814485D01*
X156116304Y-127814485D01*
X156211542Y-127862104D01*
X156259161Y-127909723D01*
X156306780Y-128004961D01*
X156306780Y-128243057D01*
X156259161Y-128338295D01*
X156211542Y-128385914D01*
%TO.C,R4*%
X154376380Y-128766866D02*
X153900190Y-129100200D01*
X154376380Y-129338295D02*
X153376380Y-129338295D01*
X153376380Y-128957342D01*
X153424000Y-128862104D01*
X153471619Y-128814485D01*
X153566857Y-128766866D01*
X153709714Y-128766866D01*
X153804952Y-128814485D01*
X153852571Y-128862104D01*
X153900190Y-128957342D01*
X153900190Y-129338295D01*
X153709714Y-127909723D02*
X154376380Y-127909723D01*
X153328761Y-128147819D02*
X154043047Y-128385914D01*
X154043047Y-127766866D01*
%TO.C,R3*%
X152369780Y-128792266D02*
X151893590Y-129125600D01*
X152369780Y-129363695D02*
X151369780Y-129363695D01*
X151369780Y-128982742D01*
X151417400Y-128887504D01*
X151465019Y-128839885D01*
X151560257Y-128792266D01*
X151703114Y-128792266D01*
X151798352Y-128839885D01*
X151845971Y-128887504D01*
X151893590Y-128982742D01*
X151893590Y-129363695D01*
X151369780Y-128458933D02*
X151369780Y-127839885D01*
X151750733Y-128173219D01*
X151750733Y-128030361D01*
X151798352Y-127935123D01*
X151845971Y-127887504D01*
X151941209Y-127839885D01*
X152179304Y-127839885D01*
X152274542Y-127887504D01*
X152322161Y-127935123D01*
X152369780Y-128030361D01*
X152369780Y-128316076D01*
X152322161Y-128411314D01*
X152274542Y-128458933D01*
%TO.C,U1*%
X126568295Y-91273380D02*
X126568295Y-92082904D01*
X126615914Y-92178142D01*
X126663533Y-92225761D01*
X126758771Y-92273380D01*
X126949247Y-92273380D01*
X127044485Y-92225761D01*
X127092104Y-92178142D01*
X127139723Y-92082904D01*
X127139723Y-91273380D01*
X128139723Y-92273380D02*
X127568295Y-92273380D01*
X127854009Y-92273380D02*
X127854009Y-91273380D01*
X127758771Y-91416238D01*
X127663533Y-91511476D01*
X127568295Y-91559095D01*
X121998647Y-93594180D02*
X121998647Y-92594180D01*
X122331980Y-93308466D01*
X122665314Y-92594180D01*
X122665314Y-93594180D01*
X123093885Y-93546561D02*
X123236742Y-93594180D01*
X123474838Y-93594180D01*
X123570076Y-93546561D01*
X123617695Y-93498942D01*
X123665314Y-93403704D01*
X123665314Y-93308466D01*
X123617695Y-93213228D01*
X123570076Y-93165609D01*
X123474838Y-93117990D01*
X123284361Y-93070371D01*
X123189123Y-93022752D01*
X123141504Y-92975133D01*
X123093885Y-92879895D01*
X123093885Y-92784657D01*
X123141504Y-92689419D01*
X123189123Y-92641800D01*
X123284361Y-92594180D01*
X123522457Y-92594180D01*
X123665314Y-92641800D01*
X124093885Y-93594180D02*
X124093885Y-92594180D01*
X124474838Y-92594180D01*
X124570076Y-92641800D01*
X124617695Y-92689419D01*
X124665314Y-92784657D01*
X124665314Y-92927514D01*
X124617695Y-93022752D01*
X124570076Y-93070371D01*
X124474838Y-93117990D01*
X124093885Y-93117990D01*
X125522457Y-92927514D02*
X125522457Y-93594180D01*
X125284361Y-92546561D02*
X125046266Y-93260847D01*
X125665314Y-93260847D01*
X125951028Y-92594180D02*
X126570076Y-92594180D01*
X126236742Y-92975133D01*
X126379600Y-92975133D01*
X126474838Y-93022752D01*
X126522457Y-93070371D01*
X126570076Y-93165609D01*
X126570076Y-93403704D01*
X126522457Y-93498942D01*
X126474838Y-93546561D01*
X126379600Y-93594180D01*
X126093885Y-93594180D01*
X125998647Y-93546561D01*
X125951028Y-93498942D01*
X127189123Y-92594180D02*
X127284361Y-92594180D01*
X127379600Y-92641800D01*
X127427219Y-92689419D01*
X127474838Y-92784657D01*
X127522457Y-92975133D01*
X127522457Y-93213228D01*
X127474838Y-93403704D01*
X127427219Y-93498942D01*
X127379600Y-93546561D01*
X127284361Y-93594180D01*
X127189123Y-93594180D01*
X127093885Y-93546561D01*
X127046266Y-93498942D01*
X126998647Y-93403704D01*
X126951028Y-93213228D01*
X126951028Y-92975133D01*
X126998647Y-92784657D01*
X127046266Y-92689419D01*
X127093885Y-92641800D01*
X127189123Y-92594180D01*
X128284361Y-93070371D02*
X127951028Y-93070371D01*
X127951028Y-93594180D02*
X127951028Y-92594180D01*
X128427219Y-92594180D01*
X129379600Y-93594180D02*
X129046266Y-93117990D01*
X128808171Y-93594180D02*
X128808171Y-92594180D01*
X129189123Y-92594180D01*
X129284361Y-92641800D01*
X129331980Y-92689419D01*
X129379600Y-92784657D01*
X129379600Y-92927514D01*
X129331980Y-93022752D01*
X129284361Y-93070371D01*
X129189123Y-93117990D01*
X128808171Y-93117990D01*
X130236742Y-92594180D02*
X130046266Y-92594180D01*
X129951028Y-92641800D01*
X129903409Y-92689419D01*
X129808171Y-92832276D01*
X129760552Y-93022752D01*
X129760552Y-93403704D01*
X129808171Y-93498942D01*
X129855790Y-93546561D01*
X129951028Y-93594180D01*
X130141504Y-93594180D01*
X130236742Y-93546561D01*
X130284361Y-93498942D01*
X130331980Y-93403704D01*
X130331980Y-93165609D01*
X130284361Y-93070371D01*
X130236742Y-93022752D01*
X130141504Y-92975133D01*
X129951028Y-92975133D01*
X129855790Y-93022752D01*
X129808171Y-93070371D01*
X129760552Y-93165609D01*
X130808171Y-93594180D02*
X130998647Y-93594180D01*
X131093885Y-93546561D01*
X131141504Y-93498942D01*
X131236742Y-93356085D01*
X131284361Y-93165609D01*
X131284361Y-92784657D01*
X131236742Y-92689419D01*
X131189123Y-92641800D01*
X131093885Y-92594180D01*
X130903409Y-92594180D01*
X130808171Y-92641800D01*
X130760552Y-92689419D01*
X130712933Y-92784657D01*
X130712933Y-93022752D01*
X130760552Y-93117990D01*
X130808171Y-93165609D01*
X130903409Y-93213228D01*
X131093885Y-93213228D01*
X131189123Y-93165609D01*
X131236742Y-93117990D01*
X131284361Y-93022752D01*
X131617695Y-92594180D02*
X132284361Y-92594180D01*
X131855790Y-93594180D01*
X132617695Y-92689419D02*
X132665314Y-92641800D01*
X132760552Y-92594180D01*
X132998647Y-92594180D01*
X133093885Y-92641800D01*
X133141504Y-92689419D01*
X133189123Y-92784657D01*
X133189123Y-92879895D01*
X133141504Y-93022752D01*
X132570076Y-93594180D01*
X133189123Y-93594180D01*
X133617695Y-93594180D02*
X133617695Y-92594180D01*
X134093885Y-93594180D02*
X134093885Y-92594180D01*
X134474838Y-92594180D01*
X134570076Y-92641800D01*
X134617695Y-92689419D01*
X134665314Y-92784657D01*
X134665314Y-92927514D01*
X134617695Y-93022752D01*
X134570076Y-93070371D01*
X134474838Y-93117990D01*
X134093885Y-93117990D01*
X135093885Y-93594180D02*
X135093885Y-92594180D01*
X135427219Y-93308466D01*
X135760552Y-92594180D01*
X135760552Y-93594180D01*
X128295400Y-98867980D02*
X128295400Y-99106076D01*
X128057304Y-99010838D02*
X128295400Y-99106076D01*
X128533495Y-99010838D01*
X128152542Y-99296552D02*
X128295400Y-99106076D01*
X128438257Y-99296552D01*
%TO.C,*%
%TO.C,L2*%
X120784880Y-121170666D02*
X120784880Y-121646857D01*
X119784880Y-121646857D01*
X119880119Y-120884952D02*
X119832500Y-120837333D01*
X119784880Y-120742095D01*
X119784880Y-120504000D01*
X119832500Y-120408761D01*
X119880119Y-120361142D01*
X119975357Y-120313523D01*
X120070595Y-120313523D01*
X120213452Y-120361142D01*
X120784880Y-120932571D01*
X120784880Y-120313523D01*
%TO.C,C3*%
X146485942Y-97423266D02*
X146533561Y-97470885D01*
X146581180Y-97613742D01*
X146581180Y-97708980D01*
X146533561Y-97851838D01*
X146438323Y-97947076D01*
X146343085Y-97994695D01*
X146152609Y-98042314D01*
X146009752Y-98042314D01*
X145819276Y-97994695D01*
X145724038Y-97947076D01*
X145628800Y-97851838D01*
X145581180Y-97708980D01*
X145581180Y-97613742D01*
X145628800Y-97470885D01*
X145676419Y-97423266D01*
X145581180Y-97089933D02*
X145581180Y-96470885D01*
X145962133Y-96804219D01*
X145962133Y-96661361D01*
X146009752Y-96566123D01*
X146057371Y-96518504D01*
X146152609Y-96470885D01*
X146390704Y-96470885D01*
X146485942Y-96518504D01*
X146533561Y-96566123D01*
X146581180Y-96661361D01*
X146581180Y-96947076D01*
X146533561Y-97042314D01*
X146485942Y-97089933D01*
%TO.C,U2*%
X95452380Y-148361304D02*
X96261904Y-148361304D01*
X96357142Y-148313685D01*
X96404761Y-148266066D01*
X96452380Y-148170828D01*
X96452380Y-147980352D01*
X96404761Y-147885114D01*
X96357142Y-147837495D01*
X96261904Y-147789876D01*
X95452380Y-147789876D01*
X95547619Y-147361304D02*
X95500000Y-147313685D01*
X95452380Y-147218447D01*
X95452380Y-146980352D01*
X95500000Y-146885114D01*
X95547619Y-146837495D01*
X95642857Y-146789876D01*
X95738095Y-146789876D01*
X95880952Y-146837495D01*
X96452380Y-147408923D01*
X96452380Y-146789876D01*
%TO.C,C2*%
X121778733Y-82649542D02*
X121731114Y-82697161D01*
X121588257Y-82744780D01*
X121493019Y-82744780D01*
X121350161Y-82697161D01*
X121254923Y-82601923D01*
X121207304Y-82506685D01*
X121159685Y-82316209D01*
X121159685Y-82173352D01*
X121207304Y-81982876D01*
X121254923Y-81887638D01*
X121350161Y-81792400D01*
X121493019Y-81744780D01*
X121588257Y-81744780D01*
X121731114Y-81792400D01*
X121778733Y-81840019D01*
X122159685Y-81840019D02*
X122207304Y-81792400D01*
X122302542Y-81744780D01*
X122540638Y-81744780D01*
X122635876Y-81792400D01*
X122683495Y-81840019D01*
X122731114Y-81935257D01*
X122731114Y-82030495D01*
X122683495Y-82173352D01*
X122112066Y-82744780D01*
X122731114Y-82744780D01*
%TO.C,C7*%
X124547333Y-89736142D02*
X124499714Y-89783761D01*
X124356857Y-89831380D01*
X124261619Y-89831380D01*
X124118761Y-89783761D01*
X124023523Y-89688523D01*
X123975904Y-89593285D01*
X123928285Y-89402809D01*
X123928285Y-89259952D01*
X123975904Y-89069476D01*
X124023523Y-88974238D01*
X124118761Y-88879000D01*
X124261619Y-88831380D01*
X124356857Y-88831380D01*
X124499714Y-88879000D01*
X124547333Y-88926619D01*
X124880666Y-88831380D02*
X125547333Y-88831380D01*
X125118761Y-89831380D01*
%TO.C,C5*%
X137339342Y-91505066D02*
X137386961Y-91552685D01*
X137434580Y-91695542D01*
X137434580Y-91790780D01*
X137386961Y-91933638D01*
X137291723Y-92028876D01*
X137196485Y-92076495D01*
X137006009Y-92124114D01*
X136863152Y-92124114D01*
X136672676Y-92076495D01*
X136577438Y-92028876D01*
X136482200Y-91933638D01*
X136434580Y-91790780D01*
X136434580Y-91695542D01*
X136482200Y-91552685D01*
X136529819Y-91505066D01*
X136434580Y-90600304D02*
X136434580Y-91076495D01*
X136910771Y-91124114D01*
X136863152Y-91076495D01*
X136815533Y-90981257D01*
X136815533Y-90743161D01*
X136863152Y-90647923D01*
X136910771Y-90600304D01*
X137006009Y-90552685D01*
X137244104Y-90552685D01*
X137339342Y-90600304D01*
X137386961Y-90647923D01*
X137434580Y-90743161D01*
X137434580Y-90981257D01*
X137386961Y-91076495D01*
X137339342Y-91124114D01*
%TO.C,R2*%
X154874933Y-92350580D02*
X154541600Y-91874390D01*
X154303504Y-92350580D02*
X154303504Y-91350580D01*
X154684457Y-91350580D01*
X154779695Y-91398200D01*
X154827314Y-91445819D01*
X154874933Y-91541057D01*
X154874933Y-91683914D01*
X154827314Y-91779152D01*
X154779695Y-91826771D01*
X154684457Y-91874390D01*
X154303504Y-91874390D01*
X155255885Y-91445819D02*
X155303504Y-91398200D01*
X155398742Y-91350580D01*
X155636838Y-91350580D01*
X155732076Y-91398200D01*
X155779695Y-91445819D01*
X155827314Y-91541057D01*
X155827314Y-91636295D01*
X155779695Y-91779152D01*
X155208266Y-92350580D01*
X155827314Y-92350580D01*
%TO.C,Y1*%
X119401809Y-74149790D02*
X119401809Y-74625980D01*
X119068476Y-73625980D02*
X119401809Y-74149790D01*
X119735142Y-73625980D01*
X120592285Y-74625980D02*
X120020857Y-74625980D01*
X120306571Y-74625980D02*
X120306571Y-73625980D01*
X120211333Y-73768838D01*
X120116095Y-73864076D01*
X120020857Y-73911695D01*
%TO.C,C4*%
X119530342Y-106110066D02*
X119577961Y-106157685D01*
X119625580Y-106300542D01*
X119625580Y-106395780D01*
X119577961Y-106538638D01*
X119482723Y-106633876D01*
X119387485Y-106681495D01*
X119197009Y-106729114D01*
X119054152Y-106729114D01*
X118863676Y-106681495D01*
X118768438Y-106633876D01*
X118673200Y-106538638D01*
X118625580Y-106395780D01*
X118625580Y-106300542D01*
X118673200Y-106157685D01*
X118720819Y-106110066D01*
X118958914Y-105252923D02*
X119625580Y-105252923D01*
X118577961Y-105491019D02*
X119292247Y-105729114D01*
X119292247Y-105110066D01*
%TO.C,U6*%
X108458095Y-80986380D02*
X108458095Y-81795904D01*
X108505714Y-81891142D01*
X108553333Y-81938761D01*
X108648571Y-81986380D01*
X108839047Y-81986380D01*
X108934285Y-81938761D01*
X108981904Y-81891142D01*
X109029523Y-81795904D01*
X109029523Y-80986380D01*
X109934285Y-80986380D02*
X109743809Y-80986380D01*
X109648571Y-81034000D01*
X109600952Y-81081619D01*
X109505714Y-81224476D01*
X109458095Y-81414952D01*
X109458095Y-81795904D01*
X109505714Y-81891142D01*
X109553333Y-81938761D01*
X109648571Y-81986380D01*
X109839047Y-81986380D01*
X109934285Y-81938761D01*
X109981904Y-81891142D01*
X110029523Y-81795904D01*
X110029523Y-81557809D01*
X109981904Y-81462571D01*
X109934285Y-81414952D01*
X109839047Y-81367333D01*
X109648571Y-81367333D01*
X109553333Y-81414952D01*
X109505714Y-81462571D01*
X109458095Y-81557809D01*
X103394571Y-83510380D02*
X103394571Y-82510380D01*
X103632666Y-82510380D01*
X103775523Y-82558000D01*
X103870761Y-82653238D01*
X103918380Y-82748476D01*
X103966000Y-82938952D01*
X103966000Y-83081809D01*
X103918380Y-83272285D01*
X103870761Y-83367523D01*
X103775523Y-83462761D01*
X103632666Y-83510380D01*
X103394571Y-83510380D01*
X104966000Y-83510380D02*
X104632666Y-83034190D01*
X104394571Y-83510380D02*
X104394571Y-82510380D01*
X104775523Y-82510380D01*
X104870761Y-82558000D01*
X104918380Y-82605619D01*
X104966000Y-82700857D01*
X104966000Y-82843714D01*
X104918380Y-82938952D01*
X104870761Y-82986571D01*
X104775523Y-83034190D01*
X104394571Y-83034190D01*
X105251714Y-82510380D02*
X105585047Y-83510380D01*
X105918380Y-82510380D01*
X106394571Y-82938952D02*
X106299333Y-82891333D01*
X106251714Y-82843714D01*
X106204095Y-82748476D01*
X106204095Y-82700857D01*
X106251714Y-82605619D01*
X106299333Y-82558000D01*
X106394571Y-82510380D01*
X106585047Y-82510380D01*
X106680285Y-82558000D01*
X106727904Y-82605619D01*
X106775523Y-82700857D01*
X106775523Y-82748476D01*
X106727904Y-82843714D01*
X106680285Y-82891333D01*
X106585047Y-82938952D01*
X106394571Y-82938952D01*
X106299333Y-82986571D01*
X106251714Y-83034190D01*
X106204095Y-83129428D01*
X106204095Y-83319904D01*
X106251714Y-83415142D01*
X106299333Y-83462761D01*
X106394571Y-83510380D01*
X106585047Y-83510380D01*
X106680285Y-83462761D01*
X106727904Y-83415142D01*
X106775523Y-83319904D01*
X106775523Y-83129428D01*
X106727904Y-83034190D01*
X106680285Y-82986571D01*
X106585047Y-82938952D01*
X107346952Y-82938952D02*
X107251714Y-82891333D01*
X107204095Y-82843714D01*
X107156476Y-82748476D01*
X107156476Y-82700857D01*
X107204095Y-82605619D01*
X107251714Y-82558000D01*
X107346952Y-82510380D01*
X107537428Y-82510380D01*
X107632666Y-82558000D01*
X107680285Y-82605619D01*
X107727904Y-82700857D01*
X107727904Y-82748476D01*
X107680285Y-82843714D01*
X107632666Y-82891333D01*
X107537428Y-82938952D01*
X107346952Y-82938952D01*
X107251714Y-82986571D01*
X107204095Y-83034190D01*
X107156476Y-83129428D01*
X107156476Y-83319904D01*
X107204095Y-83415142D01*
X107251714Y-83462761D01*
X107346952Y-83510380D01*
X107537428Y-83510380D01*
X107632666Y-83462761D01*
X107680285Y-83415142D01*
X107727904Y-83319904D01*
X107727904Y-83129428D01*
X107680285Y-83034190D01*
X107632666Y-82986571D01*
X107537428Y-82938952D01*
X108061238Y-82510380D02*
X108680285Y-82510380D01*
X108346952Y-82891333D01*
X108489809Y-82891333D01*
X108585047Y-82938952D01*
X108632666Y-82986571D01*
X108680285Y-83081809D01*
X108680285Y-83319904D01*
X108632666Y-83415142D01*
X108585047Y-83462761D01*
X108489809Y-83510380D01*
X108204095Y-83510380D01*
X108108857Y-83462761D01*
X108061238Y-83415142D01*
X109013619Y-82510380D02*
X109680285Y-82510380D01*
X109251714Y-83510380D01*
X110632666Y-83415142D02*
X110585047Y-83462761D01*
X110442190Y-83510380D01*
X110346952Y-83510380D01*
X110204095Y-83462761D01*
X110108857Y-83367523D01*
X110061238Y-83272285D01*
X110013619Y-83081809D01*
X110013619Y-82938952D01*
X110061238Y-82748476D01*
X110108857Y-82653238D01*
X110204095Y-82558000D01*
X110346952Y-82510380D01*
X110442190Y-82510380D01*
X110585047Y-82558000D01*
X110632666Y-82605619D01*
X111061238Y-83510380D02*
X111061238Y-82510380D01*
X111299333Y-82510380D01*
X111442190Y-82558000D01*
X111537428Y-82653238D01*
X111585047Y-82748476D01*
X111632666Y-82938952D01*
X111632666Y-83081809D01*
X111585047Y-83272285D01*
X111537428Y-83367523D01*
X111442190Y-83462761D01*
X111299333Y-83510380D01*
X111061238Y-83510380D01*
X112013619Y-83462761D02*
X112156476Y-83510380D01*
X112394571Y-83510380D01*
X112489809Y-83462761D01*
X112537428Y-83415142D01*
X112585047Y-83319904D01*
X112585047Y-83224666D01*
X112537428Y-83129428D01*
X112489809Y-83081809D01*
X112394571Y-83034190D01*
X112204095Y-82986571D01*
X112108857Y-82938952D01*
X112061238Y-82891333D01*
X112013619Y-82796095D01*
X112013619Y-82700857D01*
X112061238Y-82605619D01*
X112108857Y-82558000D01*
X112204095Y-82510380D01*
X112442190Y-82510380D01*
X112585047Y-82558000D01*
X113537428Y-82558000D02*
X113442190Y-82510380D01*
X113299333Y-82510380D01*
X113156476Y-82558000D01*
X113061238Y-82653238D01*
X113013619Y-82748476D01*
X112966000Y-82938952D01*
X112966000Y-83081809D01*
X113013619Y-83272285D01*
X113061238Y-83367523D01*
X113156476Y-83462761D01*
X113299333Y-83510380D01*
X113394571Y-83510380D01*
X113537428Y-83462761D01*
X113585047Y-83415142D01*
X113585047Y-83081809D01*
X113394571Y-83081809D01*
X114585047Y-83510380D02*
X114251714Y-83034190D01*
X114013619Y-83510380D02*
X114013619Y-82510380D01*
X114394571Y-82510380D01*
X114489809Y-82558000D01*
X114537428Y-82605619D01*
X114585047Y-82700857D01*
X114585047Y-82843714D01*
X114537428Y-82938952D01*
X114489809Y-82986571D01*
X114394571Y-83034190D01*
X114013619Y-83034190D01*
%TO.C,J1*%
X115287466Y-94221580D02*
X115287466Y-94935866D01*
X115239847Y-95078723D01*
X115144609Y-95173961D01*
X115001752Y-95221580D01*
X114906514Y-95221580D01*
X116287466Y-95221580D02*
X115716038Y-95221580D01*
X116001752Y-95221580D02*
X116001752Y-94221580D01*
X115906514Y-94364438D01*
X115811276Y-94459676D01*
X115716038Y-94507295D01*
%TO.C,C6*%
X140692142Y-91505066D02*
X140739761Y-91552685D01*
X140787380Y-91695542D01*
X140787380Y-91790780D01*
X140739761Y-91933638D01*
X140644523Y-92028876D01*
X140549285Y-92076495D01*
X140358809Y-92124114D01*
X140215952Y-92124114D01*
X140025476Y-92076495D01*
X139930238Y-92028876D01*
X139835000Y-91933638D01*
X139787380Y-91790780D01*
X139787380Y-91695542D01*
X139835000Y-91552685D01*
X139882619Y-91505066D01*
X139787380Y-90647923D02*
X139787380Y-90838400D01*
X139835000Y-90933638D01*
X139882619Y-90981257D01*
X140025476Y-91076495D01*
X140215952Y-91124114D01*
X140596904Y-91124114D01*
X140692142Y-91076495D01*
X140739761Y-91028876D01*
X140787380Y-90933638D01*
X140787380Y-90743161D01*
X140739761Y-90647923D01*
X140692142Y-90600304D01*
X140596904Y-90552685D01*
X140358809Y-90552685D01*
X140263571Y-90600304D01*
X140215952Y-90647923D01*
X140168333Y-90743161D01*
X140168333Y-90933638D01*
X140215952Y-91028876D01*
X140263571Y-91076495D01*
X140358809Y-91124114D01*
%TO.C,R1*%
X154900333Y-88997780D02*
X154567000Y-88521590D01*
X154328904Y-88997780D02*
X154328904Y-87997780D01*
X154709857Y-87997780D01*
X154805095Y-88045400D01*
X154852714Y-88093019D01*
X154900333Y-88188257D01*
X154900333Y-88331114D01*
X154852714Y-88426352D01*
X154805095Y-88473971D01*
X154709857Y-88521590D01*
X154328904Y-88521590D01*
X155852714Y-88997780D02*
X155281285Y-88997780D01*
X155567000Y-88997780D02*
X155567000Y-87997780D01*
X155471761Y-88140638D01*
X155376523Y-88235876D01*
X155281285Y-88283495D01*
%TO.C,REF\u002A\u002A*%
X185000733Y-150593419D02*
X185334066Y-151069609D01*
X185572161Y-150593419D02*
X185572161Y-151593419D01*
X185191209Y-151593419D01*
X185095971Y-151545800D01*
X185048352Y-151498180D01*
X185000733Y-151402942D01*
X185000733Y-151260085D01*
X185048352Y-151164847D01*
X185095971Y-151117228D01*
X185191209Y-151069609D01*
X185572161Y-151069609D01*
X184572161Y-151117228D02*
X184238828Y-151117228D01*
X184095971Y-150593419D02*
X184572161Y-150593419D01*
X184572161Y-151593419D01*
X184095971Y-151593419D01*
X183334066Y-151117228D02*
X183667400Y-151117228D01*
X183667400Y-150593419D02*
X183667400Y-151593419D01*
X183191209Y-151593419D01*
X182667400Y-151593419D02*
X182667400Y-151355323D01*
X182905495Y-151450561D02*
X182667400Y-151355323D01*
X182429304Y-151450561D01*
X182810257Y-151164847D02*
X182667400Y-151355323D01*
X182524542Y-151164847D01*
X181905495Y-151593419D02*
X181905495Y-151355323D01*
X182143590Y-151450561D02*
X181905495Y-151355323D01*
X181667400Y-151450561D01*
X182048352Y-151164847D02*
X181905495Y-151355323D01*
X181762638Y-151164847D01*
%TO.C,C1*%
X117917933Y-82602342D02*
X117870314Y-82649961D01*
X117727457Y-82697580D01*
X117632219Y-82697580D01*
X117489361Y-82649961D01*
X117394123Y-82554723D01*
X117346504Y-82459485D01*
X117298885Y-82269009D01*
X117298885Y-82126152D01*
X117346504Y-81935676D01*
X117394123Y-81840438D01*
X117489361Y-81745200D01*
X117632219Y-81697580D01*
X117727457Y-81697580D01*
X117870314Y-81745200D01*
X117917933Y-81792819D01*
X118870314Y-82697580D02*
X118298885Y-82697580D01*
X118584600Y-82697580D02*
X118584600Y-81697580D01*
X118489361Y-81840438D01*
X118394123Y-81935676D01*
X118298885Y-81983295D01*
%TO.C,D2*%
X162558504Y-95430580D02*
X162558504Y-94430580D01*
X162796600Y-94430580D01*
X162939457Y-94478200D01*
X163034695Y-94573438D01*
X163082314Y-94668676D01*
X163129933Y-94859152D01*
X163129933Y-95002009D01*
X163082314Y-95192485D01*
X163034695Y-95287723D01*
X162939457Y-95382961D01*
X162796600Y-95430580D01*
X162558504Y-95430580D01*
X163510885Y-94525819D02*
X163558504Y-94478200D01*
X163653742Y-94430580D01*
X163891838Y-94430580D01*
X163987076Y-94478200D01*
X164034695Y-94525819D01*
X164082314Y-94621057D01*
X164082314Y-94716295D01*
X164034695Y-94859152D01*
X163463266Y-95430580D01*
X164082314Y-95430580D01*
%TO.C,D1*%
X162558504Y-92077780D02*
X162558504Y-91077780D01*
X162796600Y-91077780D01*
X162939457Y-91125400D01*
X163034695Y-91220638D01*
X163082314Y-91315876D01*
X163129933Y-91506352D01*
X163129933Y-91649209D01*
X163082314Y-91839685D01*
X163034695Y-91934923D01*
X162939457Y-92030161D01*
X162796600Y-92077780D01*
X162558504Y-92077780D01*
X164082314Y-92077780D02*
X163510885Y-92077780D01*
X163796600Y-92077780D02*
X163796600Y-91077780D01*
X163701361Y-91220638D01*
X163606123Y-91315876D01*
X163510885Y-91363495D01*
%TO.C,U3*%
X143851380Y-105460704D02*
X144660904Y-105460704D01*
X144756142Y-105413085D01*
X144803761Y-105365466D01*
X144851380Y-105270228D01*
X144851380Y-105079752D01*
X144803761Y-104984514D01*
X144756142Y-104936895D01*
X144660904Y-104889276D01*
X143851380Y-104889276D01*
X143851380Y-104508323D02*
X143851380Y-103889276D01*
X144232333Y-104222609D01*
X144232333Y-104079752D01*
X144279952Y-103984514D01*
X144327571Y-103936895D01*
X144422809Y-103889276D01*
X144660904Y-103889276D01*
X144756142Y-103936895D01*
X144803761Y-103984514D01*
X144851380Y-104079752D01*
X144851380Y-104365466D01*
X144803761Y-104460704D01*
X144756142Y-104508323D01*
X146095980Y-109753266D02*
X146095980Y-110229457D01*
X145095980Y-110229457D01*
X146048361Y-109467552D02*
X146095980Y-109324695D01*
X146095980Y-109086600D01*
X146048361Y-108991361D01*
X146000742Y-108943742D01*
X145905504Y-108896123D01*
X145810266Y-108896123D01*
X145715028Y-108943742D01*
X145667409Y-108991361D01*
X145619790Y-109086600D01*
X145572171Y-109277076D01*
X145524552Y-109372314D01*
X145476933Y-109419933D01*
X145381695Y-109467552D01*
X145286457Y-109467552D01*
X145191219Y-109419933D01*
X145143600Y-109372314D01*
X145095980Y-109277076D01*
X145095980Y-109038980D01*
X145143600Y-108896123D01*
X146095980Y-108467552D02*
X145095980Y-108467552D01*
X145810266Y-108134219D01*
X145095980Y-107800885D01*
X146095980Y-107800885D01*
X145095980Y-106896123D02*
X145095980Y-107086600D01*
X145143600Y-107181838D01*
X145191219Y-107229457D01*
X145334076Y-107324695D01*
X145524552Y-107372314D01*
X145905504Y-107372314D01*
X146000742Y-107324695D01*
X146048361Y-107277076D01*
X146095980Y-107181838D01*
X146095980Y-106991361D01*
X146048361Y-106896123D01*
X146000742Y-106848504D01*
X145905504Y-106800885D01*
X145667409Y-106800885D01*
X145572171Y-106848504D01*
X145524552Y-106896123D01*
X145476933Y-106991361D01*
X145476933Y-107181838D01*
X145524552Y-107277076D01*
X145572171Y-107324695D01*
X145667409Y-107372314D01*
X146095980Y-106372314D02*
X145095980Y-106372314D01*
X145095980Y-106134219D01*
X145143600Y-105991361D01*
X145238838Y-105896123D01*
X145334076Y-105848504D01*
X145524552Y-105800885D01*
X145667409Y-105800885D01*
X145857885Y-105848504D01*
X145953123Y-105896123D01*
X146048361Y-105991361D01*
X146095980Y-106134219D01*
X146095980Y-106372314D01*
X146048361Y-105419933D02*
X146095980Y-105277076D01*
X146095980Y-105038980D01*
X146048361Y-104943742D01*
X146000742Y-104896123D01*
X145905504Y-104848504D01*
X145810266Y-104848504D01*
X145715028Y-104896123D01*
X145667409Y-104943742D01*
X145619790Y-105038980D01*
X145572171Y-105229457D01*
X145524552Y-105324695D01*
X145476933Y-105372314D01*
X145381695Y-105419933D01*
X145286457Y-105419933D01*
X145191219Y-105372314D01*
X145143600Y-105324695D01*
X145095980Y-105229457D01*
X145095980Y-104991361D01*
X145143600Y-104848504D01*
X145095980Y-104515171D02*
X145095980Y-103896123D01*
X145476933Y-104229457D01*
X145476933Y-104086600D01*
X145524552Y-103991361D01*
X145572171Y-103943742D01*
X145667409Y-103896123D01*
X145905504Y-103896123D01*
X146000742Y-103943742D01*
X146048361Y-103991361D01*
X146095980Y-104086600D01*
X146095980Y-104372314D01*
X146048361Y-104467552D01*
X146000742Y-104515171D01*
X145095980Y-103610409D02*
X145095980Y-103038980D01*
X146095980Y-103324695D02*
X145095980Y-103324695D01*
X146095980Y-102134219D02*
X145619790Y-102467552D01*
X146095980Y-102705647D02*
X145095980Y-102705647D01*
X145095980Y-102324695D01*
X145143600Y-102229457D01*
X145191219Y-102181838D01*
X145286457Y-102134219D01*
X145429314Y-102134219D01*
X145524552Y-102181838D01*
X145572171Y-102229457D01*
X145619790Y-102324695D01*
X145619790Y-102705647D01*
X145715028Y-101705647D02*
X145715028Y-100943742D01*
X146000742Y-99896123D02*
X146048361Y-99943742D01*
X146095980Y-100086600D01*
X146095980Y-100181838D01*
X146048361Y-100324695D01*
X145953123Y-100419933D01*
X145857885Y-100467552D01*
X145667409Y-100515171D01*
X145524552Y-100515171D01*
X145334076Y-100467552D01*
X145238838Y-100419933D01*
X145143600Y-100324695D01*
X145095980Y-100181838D01*
X145095980Y-100086600D01*
X145143600Y-99943742D01*
X145191219Y-99896123D01*
%TO.C,*%
%TO.C,L3*%
X112355333Y-92146380D02*
X111879142Y-92146380D01*
X111879142Y-91146380D01*
X112593428Y-91146380D02*
X113212476Y-91146380D01*
X112879142Y-91527333D01*
X113022000Y-91527333D01*
X113117238Y-91574952D01*
X113164857Y-91622571D01*
X113212476Y-91717809D01*
X113212476Y-91955904D01*
X113164857Y-92051142D01*
X113117238Y-92098761D01*
X113022000Y-92146380D01*
X112736285Y-92146380D01*
X112641047Y-92098761D01*
X112593428Y-92051142D01*
%TO.C,*%
%TO.C,C9*%
X149980942Y-106603266D02*
X150028561Y-106650885D01*
X150076180Y-106793742D01*
X150076180Y-106888980D01*
X150028561Y-107031838D01*
X149933323Y-107127076D01*
X149838085Y-107174695D01*
X149647609Y-107222314D01*
X149504752Y-107222314D01*
X149314276Y-107174695D01*
X149219038Y-107127076D01*
X149123800Y-107031838D01*
X149076180Y-106888980D01*
X149076180Y-106793742D01*
X149123800Y-106650885D01*
X149171419Y-106603266D01*
X150076180Y-106127076D02*
X150076180Y-105936600D01*
X150028561Y-105841361D01*
X149980942Y-105793742D01*
X149838085Y-105698504D01*
X149647609Y-105650885D01*
X149266657Y-105650885D01*
X149171419Y-105698504D01*
X149123800Y-105746123D01*
X149076180Y-105841361D01*
X149076180Y-106031838D01*
X149123800Y-106127076D01*
X149171419Y-106174695D01*
X149266657Y-106222314D01*
X149504752Y-106222314D01*
X149599990Y-106174695D01*
X149647609Y-106127076D01*
X149695228Y-106031838D01*
X149695228Y-105841361D01*
X149647609Y-105746123D01*
X149599990Y-105698504D01*
X149504752Y-105650885D01*
%TO.C,C8*%
X149970942Y-102953266D02*
X150018561Y-103000885D01*
X150066180Y-103143742D01*
X150066180Y-103238980D01*
X150018561Y-103381838D01*
X149923323Y-103477076D01*
X149828085Y-103524695D01*
X149637609Y-103572314D01*
X149494752Y-103572314D01*
X149304276Y-103524695D01*
X149209038Y-103477076D01*
X149113800Y-103381838D01*
X149066180Y-103238980D01*
X149066180Y-103143742D01*
X149113800Y-103000885D01*
X149161419Y-102953266D01*
X149494752Y-102381838D02*
X149447133Y-102477076D01*
X149399514Y-102524695D01*
X149304276Y-102572314D01*
X149256657Y-102572314D01*
X149161419Y-102524695D01*
X149113800Y-102477076D01*
X149066180Y-102381838D01*
X149066180Y-102191361D01*
X149113800Y-102096123D01*
X149161419Y-102048504D01*
X149256657Y-102000885D01*
X149304276Y-102000885D01*
X149399514Y-102048504D01*
X149447133Y-102096123D01*
X149494752Y-102191361D01*
X149494752Y-102381838D01*
X149542371Y-102477076D01*
X149589990Y-102524695D01*
X149685228Y-102572314D01*
X149875704Y-102572314D01*
X149970942Y-102524695D01*
X150018561Y-102477076D01*
X150066180Y-102381838D01*
X150066180Y-102191361D01*
X150018561Y-102096123D01*
X149970942Y-102048504D01*
X149875704Y-102000885D01*
X149685228Y-102000885D01*
X149589990Y-102048504D01*
X149542371Y-102096123D01*
X149494752Y-102191361D01*
%TO.C,L1*%
X165441333Y-74874380D02*
X164965142Y-74874380D01*
X164965142Y-73874380D01*
X166298476Y-74874380D02*
X165727047Y-74874380D01*
X166012761Y-74874380D02*
X166012761Y-73874380D01*
X165917523Y-74017238D01*
X165822285Y-74112476D01*
X165727047Y-74160095D01*
%TO.C,U4*%
X148844095Y-71842380D02*
X148844095Y-72651904D01*
X148891714Y-72747142D01*
X148939333Y-72794761D01*
X149034571Y-72842380D01*
X149225047Y-72842380D01*
X149320285Y-72794761D01*
X149367904Y-72747142D01*
X149415523Y-72651904D01*
X149415523Y-71842380D01*
X150320285Y-72175714D02*
X150320285Y-72842380D01*
X150082190Y-71794761D02*
X149844095Y-72509047D01*
X150463142Y-72509047D01*
X144034571Y-74163180D02*
X144034571Y-73163180D01*
X144272666Y-73163180D01*
X144415523Y-73210800D01*
X144510761Y-73306038D01*
X144558380Y-73401276D01*
X144606000Y-73591752D01*
X144606000Y-73734609D01*
X144558380Y-73925085D01*
X144510761Y-74020323D01*
X144415523Y-74115561D01*
X144272666Y-74163180D01*
X144034571Y-74163180D01*
X145606000Y-74163180D02*
X145272666Y-73686990D01*
X145034571Y-74163180D02*
X145034571Y-73163180D01*
X145415523Y-73163180D01*
X145510761Y-73210800D01*
X145558380Y-73258419D01*
X145606000Y-73353657D01*
X145606000Y-73496514D01*
X145558380Y-73591752D01*
X145510761Y-73639371D01*
X145415523Y-73686990D01*
X145034571Y-73686990D01*
X145891714Y-73163180D02*
X146225047Y-74163180D01*
X146558380Y-73163180D01*
X147034571Y-73591752D02*
X146939333Y-73544133D01*
X146891714Y-73496514D01*
X146844095Y-73401276D01*
X146844095Y-73353657D01*
X146891714Y-73258419D01*
X146939333Y-73210800D01*
X147034571Y-73163180D01*
X147225047Y-73163180D01*
X147320285Y-73210800D01*
X147367904Y-73258419D01*
X147415523Y-73353657D01*
X147415523Y-73401276D01*
X147367904Y-73496514D01*
X147320285Y-73544133D01*
X147225047Y-73591752D01*
X147034571Y-73591752D01*
X146939333Y-73639371D01*
X146891714Y-73686990D01*
X146844095Y-73782228D01*
X146844095Y-73972704D01*
X146891714Y-74067942D01*
X146939333Y-74115561D01*
X147034571Y-74163180D01*
X147225047Y-74163180D01*
X147320285Y-74115561D01*
X147367904Y-74067942D01*
X147415523Y-73972704D01*
X147415523Y-73782228D01*
X147367904Y-73686990D01*
X147320285Y-73639371D01*
X147225047Y-73591752D01*
X147986952Y-73591752D02*
X147891714Y-73544133D01*
X147844095Y-73496514D01*
X147796476Y-73401276D01*
X147796476Y-73353657D01*
X147844095Y-73258419D01*
X147891714Y-73210800D01*
X147986952Y-73163180D01*
X148177428Y-73163180D01*
X148272666Y-73210800D01*
X148320285Y-73258419D01*
X148367904Y-73353657D01*
X148367904Y-73401276D01*
X148320285Y-73496514D01*
X148272666Y-73544133D01*
X148177428Y-73591752D01*
X147986952Y-73591752D01*
X147891714Y-73639371D01*
X147844095Y-73686990D01*
X147796476Y-73782228D01*
X147796476Y-73972704D01*
X147844095Y-74067942D01*
X147891714Y-74115561D01*
X147986952Y-74163180D01*
X148177428Y-74163180D01*
X148272666Y-74115561D01*
X148320285Y-74067942D01*
X148367904Y-73972704D01*
X148367904Y-73782228D01*
X148320285Y-73686990D01*
X148272666Y-73639371D01*
X148177428Y-73591752D01*
X148701238Y-73163180D02*
X149320285Y-73163180D01*
X148986952Y-73544133D01*
X149129809Y-73544133D01*
X149225047Y-73591752D01*
X149272666Y-73639371D01*
X149320285Y-73734609D01*
X149320285Y-73972704D01*
X149272666Y-74067942D01*
X149225047Y-74115561D01*
X149129809Y-74163180D01*
X148844095Y-74163180D01*
X148748857Y-74115561D01*
X148701238Y-74067942D01*
X149653619Y-73163180D02*
X150320285Y-73163180D01*
X149891714Y-74163180D01*
X151272666Y-74067942D02*
X151225047Y-74115561D01*
X151082190Y-74163180D01*
X150986952Y-74163180D01*
X150844095Y-74115561D01*
X150748857Y-74020323D01*
X150701238Y-73925085D01*
X150653619Y-73734609D01*
X150653619Y-73591752D01*
X150701238Y-73401276D01*
X150748857Y-73306038D01*
X150844095Y-73210800D01*
X150986952Y-73163180D01*
X151082190Y-73163180D01*
X151225047Y-73210800D01*
X151272666Y-73258419D01*
X151701238Y-74163180D02*
X151701238Y-73163180D01*
X151939333Y-73163180D01*
X152082190Y-73210800D01*
X152177428Y-73306038D01*
X152225047Y-73401276D01*
X152272666Y-73591752D01*
X152272666Y-73734609D01*
X152225047Y-73925085D01*
X152177428Y-74020323D01*
X152082190Y-74115561D01*
X151939333Y-74163180D01*
X151701238Y-74163180D01*
X152653619Y-74115561D02*
X152796476Y-74163180D01*
X153034571Y-74163180D01*
X153129809Y-74115561D01*
X153177428Y-74067942D01*
X153225047Y-73972704D01*
X153225047Y-73877466D01*
X153177428Y-73782228D01*
X153129809Y-73734609D01*
X153034571Y-73686990D01*
X152844095Y-73639371D01*
X152748857Y-73591752D01*
X152701238Y-73544133D01*
X152653619Y-73448895D01*
X152653619Y-73353657D01*
X152701238Y-73258419D01*
X152748857Y-73210800D01*
X152844095Y-73163180D01*
X153082190Y-73163180D01*
X153225047Y-73210800D01*
X154177428Y-73210800D02*
X154082190Y-73163180D01*
X153939333Y-73163180D01*
X153796476Y-73210800D01*
X153701238Y-73306038D01*
X153653619Y-73401276D01*
X153606000Y-73591752D01*
X153606000Y-73734609D01*
X153653619Y-73925085D01*
X153701238Y-74020323D01*
X153796476Y-74115561D01*
X153939333Y-74163180D01*
X154034571Y-74163180D01*
X154177428Y-74115561D01*
X154225047Y-74067942D01*
X154225047Y-73734609D01*
X154034571Y-73734609D01*
X155225047Y-74163180D02*
X154891714Y-73686990D01*
X154653619Y-74163180D02*
X154653619Y-73163180D01*
X155034571Y-73163180D01*
X155129809Y-73210800D01*
X155177428Y-73258419D01*
X155225047Y-73353657D01*
X155225047Y-73496514D01*
X155177428Y-73591752D01*
X155129809Y-73639371D01*
X155034571Y-73686990D01*
X154653619Y-73686990D01*
%TO.C,J2*%
X103496866Y-126276380D02*
X103496866Y-126990666D01*
X103449247Y-127133523D01*
X103354009Y-127228761D01*
X103211152Y-127276380D01*
X103115914Y-127276380D01*
X103925438Y-126371619D02*
X103973057Y-126324000D01*
X104068295Y-126276380D01*
X104306390Y-126276380D01*
X104401628Y-126324000D01*
X104449247Y-126371619D01*
X104496866Y-126466857D01*
X104496866Y-126562095D01*
X104449247Y-126704952D01*
X103877819Y-127276380D01*
X104496866Y-127276380D01*
%TO.C,IC1*%
X165901809Y-136773880D02*
X165901809Y-135773880D01*
X166949428Y-136678642D02*
X166901809Y-136726261D01*
X166758952Y-136773880D01*
X166663714Y-136773880D01*
X166520857Y-136726261D01*
X166425619Y-136631023D01*
X166378000Y-136535785D01*
X166330380Y-136345309D01*
X166330380Y-136202452D01*
X166378000Y-136011976D01*
X166425619Y-135916738D01*
X166520857Y-135821500D01*
X166663714Y-135773880D01*
X166758952Y-135773880D01*
X166901809Y-135821500D01*
X166949428Y-135869119D01*
X167901809Y-136773880D02*
X167330380Y-136773880D01*
X167616095Y-136773880D02*
X167616095Y-135773880D01*
X167520857Y-135916738D01*
X167425619Y-136011976D01*
X167330380Y-136059595D01*
%TO.C,IC2*%
X94432380Y-131786190D02*
X93432380Y-131786190D01*
X94337142Y-130738571D02*
X94384761Y-130786190D01*
X94432380Y-130929047D01*
X94432380Y-131024285D01*
X94384761Y-131167142D01*
X94289523Y-131262380D01*
X94194285Y-131310000D01*
X94003809Y-131357619D01*
X93860952Y-131357619D01*
X93670476Y-131310000D01*
X93575238Y-131262380D01*
X93480000Y-131167142D01*
X93432380Y-131024285D01*
X93432380Y-130929047D01*
X93480000Y-130786190D01*
X93527619Y-130738571D01*
X93527619Y-130357619D02*
X93480000Y-130310000D01*
X93432380Y-130214761D01*
X93432380Y-129976666D01*
X93480000Y-129881428D01*
X93527619Y-129833809D01*
X93622857Y-129786190D01*
X93718095Y-129786190D01*
X93860952Y-129833809D01*
X94432380Y-130405238D01*
X94432380Y-129786190D01*
%TO.C,IC3*%
X131082380Y-86828190D02*
X130082380Y-86828190D01*
X130987142Y-85780571D02*
X131034761Y-85828190D01*
X131082380Y-85971047D01*
X131082380Y-86066285D01*
X131034761Y-86209142D01*
X130939523Y-86304380D01*
X130844285Y-86352000D01*
X130653809Y-86399619D01*
X130510952Y-86399619D01*
X130320476Y-86352000D01*
X130225238Y-86304380D01*
X130130000Y-86209142D01*
X130082380Y-86066285D01*
X130082380Y-85971047D01*
X130130000Y-85828190D01*
X130177619Y-85780571D01*
X130082380Y-85447238D02*
X130082380Y-84828190D01*
X130463333Y-85161523D01*
X130463333Y-85018666D01*
X130510952Y-84923428D01*
X130558571Y-84875809D01*
X130653809Y-84828190D01*
X130891904Y-84828190D01*
X130987142Y-84875809D01*
X131034761Y-84923428D01*
X131082380Y-85018666D01*
X131082380Y-85304380D01*
X131034761Y-85399619D01*
X130987142Y-85447238D01*
D11*
%TO.C,U5*%
X121754900Y-117571174D02*
X121754900Y-118648826D01*
X124117100Y-118648826D02*
X124117100Y-117571174D01*
%TO.C,R6*%
X157126000Y-131494264D02*
X157126000Y-131040136D01*
X158596000Y-131494264D02*
X158596000Y-131040136D01*
%TO.C,R5*%
X156589400Y-131494264D02*
X156589400Y-131040136D01*
X155119400Y-131494264D02*
X155119400Y-131040136D01*
%TO.C,R4*%
X153138200Y-131468864D02*
X153138200Y-131014736D01*
X154608200Y-131468864D02*
X154608200Y-131014736D01*
%TO.C,R3*%
X151131600Y-131468864D02*
X151131600Y-131014736D01*
X152601600Y-131468864D02*
X152601600Y-131014736D01*
%TO.C,U1*%
X125955001Y-97232399D02*
G75*
G03*
X125955001Y-97232399I-300000J0D01*
G01*
X123480002Y-96032399D02*
G75*
G03*
X123480002Y-96032399I-125001J0D01*
G01*
X124655001Y-104732399D02*
X124655001Y-96232398D01*
X124655001Y-104732399D02*
X133155002Y-104732399D01*
X133155002Y-104732399D02*
X133155002Y-96232398D01*
X124655001Y-96232398D02*
X133155002Y-96232398D01*
%TO.C,C3*%
X146943800Y-99566600D02*
X148813800Y-99566600D01*
X146943800Y-95656600D02*
X146943800Y-99566600D01*
X148813800Y-99566600D02*
X148813800Y-95656600D01*
D12*
%TO.C,U2*%
X103835200Y-148889400D02*
X103835200Y-138729400D01*
X169875200Y-138729400D02*
X169875200Y-148889400D01*
X169875200Y-148889400D02*
X103835200Y-148889400D01*
X103835200Y-138729400D02*
X169875200Y-138729400D01*
X103835200Y-143809400D02*
X169875200Y-143809400D01*
D11*
%TO.C,C2*%
X121684148Y-84707400D02*
X122206652Y-84707400D01*
X121684148Y-83237400D02*
X122206652Y-83237400D01*
%TO.C,C7*%
X124452748Y-90324000D02*
X124975252Y-90324000D01*
X124452748Y-91794000D02*
X124975252Y-91794000D01*
%TO.C,C5*%
X137641000Y-94317452D02*
X137641000Y-93794948D01*
X136171000Y-94317452D02*
X136171000Y-93794948D01*
%TO.C,R2*%
X154814536Y-94283200D02*
X155268664Y-94283200D01*
X154814536Y-92813200D02*
X155268664Y-92813200D01*
%TO.C,Y1*%
X116678000Y-80223600D02*
X123078000Y-80223600D01*
X116678000Y-75173600D02*
X123078000Y-75173600D01*
X116678000Y-75173600D02*
G75*
G03*
X116678000Y-80223600I0J-2525000D01*
G01*
X123078000Y-80223600D02*
G75*
G03*
X123078000Y-75173600I0J2525000D01*
G01*
%TO.C,C4*%
X120118200Y-106204652D02*
X120118200Y-105682148D01*
X121588200Y-106204652D02*
X121588200Y-105682148D01*
%TO.C,U6*%
X113195100Y-85628826D02*
X113195100Y-84551174D01*
X110832900Y-84551174D02*
X110832900Y-85628826D01*
%TO.C,J1*%
X114290800Y-95769200D02*
X115620800Y-95769200D01*
X114290800Y-113669200D02*
X116950800Y-113669200D01*
X114290800Y-98369200D02*
X114290800Y-113669200D01*
X114290800Y-97099200D02*
X114290800Y-95769200D01*
X114290800Y-98369200D02*
X116950800Y-98369200D01*
X116950800Y-98369200D02*
X116950800Y-113669200D01*
%TO.C,C6*%
X139600000Y-94317452D02*
X139600000Y-93794948D01*
X141070000Y-94317452D02*
X141070000Y-93794948D01*
%TO.C,R1*%
X154839936Y-89460400D02*
X155294064Y-89460400D01*
X154839936Y-90930400D02*
X155294064Y-90930400D01*
%TO.C,C1*%
X118345852Y-83237400D02*
X117823348Y-83237400D01*
X118345852Y-84707400D02*
X117823348Y-84707400D01*
%TO.C,D2*%
X164781600Y-94283200D02*
X164781600Y-92813200D01*
X162496600Y-94283200D02*
X164781600Y-94283200D01*
X164781600Y-92813200D02*
X162496600Y-92813200D01*
%TO.C,D1*%
X162496600Y-90930400D02*
X164781600Y-90930400D01*
X164781600Y-90930400D02*
X164781600Y-89460400D01*
X164781600Y-89460400D02*
X162496600Y-89460400D01*
%TO.C,U3*%
X143586200Y-104007693D02*
X143586200Y-103200200D01*
X140741400Y-106553000D02*
X141044830Y-106553000D01*
X143282770Y-106553000D02*
X143586200Y-106553000D01*
X143586200Y-106553000D02*
X143586200Y-105745507D01*
X140741400Y-105745507D02*
X140741400Y-106553000D01*
X140741400Y-103200200D02*
X140741400Y-104007693D01*
X143586200Y-103200200D02*
X143282770Y-103200200D01*
X141044830Y-103200200D02*
X140741400Y-103200200D01*
D13*
X141723237Y-102920800D02*
X142104237Y-102920800D01*
X142104237Y-102920800D02*
X142104237Y-103174800D01*
X142104237Y-103174800D02*
X141723237Y-103174800D01*
X141723237Y-103174800D02*
X141723237Y-102920800D01*
G36*
X142104237Y-103174800D02*
G01*
X141723237Y-103174800D01*
X141723237Y-102920800D01*
X142104237Y-102920800D01*
X142104237Y-103174800D01*
G37*
X142104237Y-103174800D02*
X141723237Y-103174800D01*
X141723237Y-102920800D01*
X142104237Y-102920800D01*
X142104237Y-103174800D01*
D11*
%TO.C,C9*%
X148678800Y-106727852D02*
X148678800Y-106205348D01*
X147208800Y-106727852D02*
X147208800Y-106205348D01*
%TO.C,C8*%
X147198800Y-102525348D02*
X147198800Y-103047852D01*
X148668800Y-102525348D02*
X148668800Y-103047852D01*
%TO.C,U4*%
X150144826Y-74510900D02*
X149067174Y-74510900D01*
X149067174Y-76873100D02*
X150144826Y-76873100D01*
%TO.C,J2*%
X103830200Y-130424000D02*
X103830200Y-127824000D01*
X103830200Y-127824000D02*
X106430200Y-127824000D01*
X101230200Y-133024000D02*
X106430200Y-133024000D01*
X106430200Y-127824000D02*
X106430200Y-133024000D01*
X101230200Y-130424000D02*
X101230200Y-133024000D01*
X101230200Y-129154000D02*
X101230200Y-127824000D01*
X101230200Y-127824000D02*
X102560200Y-127824000D01*
X101230200Y-130424000D02*
X103830200Y-130424000D01*
%TD*%
M02*
