%TF.GenerationSoftware,KiCad,Pcbnew,(6.0.1)*%
%TF.CreationDate,2022-03-12T11:24:15-03:00*%
%TF.ProjectId,magnetorquer_v2_2,6d61676e-6574-46f7-9271-7565725f7632,rev?*%
%TF.SameCoordinates,Original*%
%TF.FileFunction,Copper,L1,Top*%
%TF.FilePolarity,Positive*%
%FSLAX46Y46*%
G04 Gerber Fmt 4.6, Leading zero omitted, Abs format (unit mm)*
G04 Created by KiCad (PCBNEW (6.0.1)) date 2022-03-12 11:24:15*
%MOMM*%
%LPD*%
G01*
G04 APERTURE LIST*
G04 Aperture macros list*
%AMRoundRect*
0 Rectangle with rounded corners*
0 $1 Rounding radius*
0 $2 $3 $4 $5 $6 $7 $8 $9 X,Y pos of 4 corners*
0 Add a 4 corners polygon primitive as box body*
4,1,4,$2,$3,$4,$5,$6,$7,$8,$9,$2,$3,0*
0 Add four circle primitives for the rounded corners*
1,1,$1+$1,$2,$3*
1,1,$1+$1,$4,$5*
1,1,$1+$1,$6,$7*
1,1,$1+$1,$8,$9*
0 Add four rect primitives between the rounded corners*
20,1,$1+$1,$2,$3,$4,$5,0*
20,1,$1+$1,$4,$5,$6,$7,0*
20,1,$1+$1,$6,$7,$8,$9,0*
20,1,$1+$1,$8,$9,$2,$3,0*%
G04 Aperture macros list end*
%TA.AperFunction,SMDPad,CuDef*%
%ADD10R,0.280000X0.500000*%
%TD*%
%TA.AperFunction,SMDPad,CuDef*%
%ADD11R,1.600200X0.889000*%
%TD*%
%TA.AperFunction,SMDPad,CuDef*%
%ADD12RoundRect,0.250000X0.450000X-0.262500X0.450000X0.262500X-0.450000X0.262500X-0.450000X-0.262500X0*%
%TD*%
%TA.AperFunction,SMDPad,CuDef*%
%ADD13O,0.299999X1.799999*%
%TD*%
%TA.AperFunction,SMDPad,CuDef*%
%ADD14O,1.799999X0.299999*%
%TD*%
%TA.AperFunction,ComponentPad*%
%ADD15C,1.524000*%
%TD*%
%TA.AperFunction,ComponentPad*%
%ADD16R,1.524000X1.524000*%
%TD*%
%TA.AperFunction,SMDPad,CuDef*%
%ADD17RoundRect,0.250000X0.425000X-0.450000X0.425000X0.450000X-0.425000X0.450000X-0.425000X-0.450000X0*%
%TD*%
%TA.AperFunction,ComponentPad*%
%ADD18C,1.600000*%
%TD*%
%TA.AperFunction,ComponentPad*%
%ADD19R,1.600000X1.600000*%
%TD*%
%TA.AperFunction,ComponentPad*%
%ADD20C,6.350000*%
%TD*%
%TA.AperFunction,SMDPad,CuDef*%
%ADD21RoundRect,0.250000X-0.250000X-0.475000X0.250000X-0.475000X0.250000X0.475000X-0.250000X0.475000X0*%
%TD*%
%TA.AperFunction,SMDPad,CuDef*%
%ADD22RoundRect,0.250000X0.475000X-0.250000X0.475000X0.250000X-0.475000X0.250000X-0.475000X-0.250000X0*%
%TD*%
%TA.AperFunction,SMDPad,CuDef*%
%ADD23RoundRect,0.250000X-0.262500X-0.450000X0.262500X-0.450000X0.262500X0.450000X-0.262500X0.450000X0*%
%TD*%
%TA.AperFunction,ComponentPad*%
%ADD24C,1.500000*%
%TD*%
%TA.AperFunction,ComponentPad*%
%ADD25R,1.700000X1.700000*%
%TD*%
%TA.AperFunction,ComponentPad*%
%ADD26O,1.700000X1.700000*%
%TD*%
%TA.AperFunction,WasherPad*%
%ADD27C,3.500000*%
%TD*%
%TA.AperFunction,SMDPad,CuDef*%
%ADD28RoundRect,0.250000X0.250000X0.475000X-0.250000X0.475000X-0.250000X-0.475000X0.250000X-0.475000X0*%
%TD*%
%TA.AperFunction,SMDPad,CuDef*%
%ADD29RoundRect,0.218750X0.218750X0.256250X-0.218750X0.256250X-0.218750X-0.256250X0.218750X-0.256250X0*%
%TD*%
%TA.AperFunction,SMDPad,CuDef*%
%ADD30R,0.355600X0.558800*%
%TD*%
%TA.AperFunction,SMDPad,CuDef*%
%ADD31R,0.558800X0.355600*%
%TD*%
%TA.AperFunction,SMDPad,CuDef*%
%ADD32RoundRect,0.250000X-0.475000X0.250000X-0.475000X-0.250000X0.475000X-0.250000X0.475000X0.250000X0*%
%TD*%
%TA.AperFunction,SMDPad,CuDef*%
%ADD33R,0.500000X0.280000*%
%TD*%
%TA.AperFunction,SMDPad,CuDef*%
%ADD34R,0.889000X1.600200*%
%TD*%
%TA.AperFunction,ComponentPad*%
%ADD35RoundRect,0.249900X-0.275100X-0.400100X0.275100X-0.400100X0.275100X0.400100X-0.275100X0.400100X0*%
%TD*%
%TA.AperFunction,ComponentPad*%
%ADD36O,1.050000X1.300000*%
%TD*%
%TA.AperFunction,ComponentPad*%
%ADD37RoundRect,0.249900X0.400100X-0.275100X0.400100X0.275100X-0.400100X0.275100X-0.400100X-0.275100X0*%
%TD*%
%TA.AperFunction,ComponentPad*%
%ADD38O,1.300000X1.050000*%
%TD*%
%TA.AperFunction,ComponentPad*%
%ADD39RoundRect,0.249900X-0.400100X0.275100X-0.400100X-0.275100X0.400100X-0.275100X0.400100X0.275100X0*%
%TD*%
%TA.AperFunction,ViaPad*%
%ADD40C,0.800000*%
%TD*%
%TA.AperFunction,Conductor*%
%ADD41C,0.250000*%
%TD*%
%TA.AperFunction,Conductor*%
%ADD42C,0.127000*%
%TD*%
%TA.AperFunction,Conductor*%
%ADD43C,0.355600*%
%TD*%
G04 APERTURE END LIST*
D10*
%TO.P,U5,1,VM*%
%TO.N,DRV_VM*%
X122185999Y-119060001D03*
%TO.P,U5,2,OUT1*%
%TO.N,Net-(L2-Pad1)*%
X122686000Y-119060001D03*
%TO.P,U5,3,OUT2*%
%TO.N,Net-(L2-Pad2)*%
X123186000Y-119060001D03*
%TO.P,U5,4,GND*%
%TO.N,GND*%
X123686001Y-119060001D03*
%TO.P,U5,5,IN2*%
%TO.N,H2_IN2*%
X123686001Y-117159999D03*
%TO.P,U5,6,IN1*%
%TO.N,H2_IN1*%
X123186000Y-117159999D03*
%TO.P,U5,7,NSLEEP*%
%TO.N,nSLEEP*%
X122686000Y-117159999D03*
%TO.P,U5,8,VCC*%
%TO.N,DRV_VM*%
X122185999Y-117159999D03*
D11*
%TO.P,U5,9*%
%TO.N,N/C*%
X122936000Y-118110000D03*
%TD*%
D12*
%TO.P,R6,1*%
%TO.N,SPI-CS*%
X157861000Y-132179700D03*
%TO.P,R6,2*%
%TO.N,Net-(U1-Pad29)*%
X157861000Y-130354700D03*
%TD*%
%TO.P,R5,2*%
%TO.N,Net-(U1-Pad28)*%
X155854400Y-130354700D03*
%TO.P,R5,1*%
%TO.N,SPI-CLK*%
X155854400Y-132179700D03*
%TD*%
%TO.P,R4,1*%
%TO.N,SPI-MISO*%
X153873200Y-132154300D03*
%TO.P,R4,2*%
%TO.N,Net-(U1-Pad27)*%
X153873200Y-130329300D03*
%TD*%
%TO.P,R3,1*%
%TO.N,SPI-MOSI*%
X151866600Y-132154300D03*
%TO.P,R3,2*%
%TO.N,Net-(U1-Pad26)*%
X151866600Y-130329300D03*
%TD*%
D13*
%TO.P,U1,64,P4-2_UCA0SIMO_UCA0TXD_UCB1CLK_S5*%
%TO.N,BCLUART_TXD*%
X125155000Y-94932398D03*
%TO.P,U1,63,DVCC3*%
%TO.N,+3V3*%
X125655001Y-94932398D03*
%TO.P,U1,62,DVSS3*%
%TO.N,GND*%
X126155000Y-94932398D03*
%TO.P,U1,61,P4-7_UCB1SOMI_UCB1SCL_TA1-2_S6*%
%TO.N,H3_IN2*%
X126655002Y-94932398D03*
%TO.P,U1,60,P4-6_UCB1SIMO_UCB1SDA_TA1-1_S7*%
%TO.N,H3_IN1*%
X127155001Y-94932398D03*
%TO.P,U1,59,P4-5_UCB1CLK_TA1-0_S8*%
%TO.N,unconnected-(U1-Pad59)*%
X127655000Y-94932398D03*
%TO.P,U1,58,P4-4_UCB1STE_TA1CLK_S9*%
%TO.N,unconnected-(U1-Pad58)*%
X128155002Y-94932398D03*
%TO.P,U1,57,P5-7_UCA1STE_TB0CLK_S10*%
%TO.N,unconnected-(U1-Pad57)*%
X128655000Y-94932398D03*
%TO.P,U1,56,AVSS3*%
%TO.N,GND*%
X129155002Y-94932398D03*
%TO.P,U1,55,PJ-6_HFXIN*%
%TO.N,unconnected-(U1-Pad55)*%
X129655001Y-94932398D03*
%TO.P,U1,54,PJ-7_HFXOUT*%
%TO.N,unconnected-(U1-Pad54)*%
X130155000Y-94932398D03*
%TO.P,U1,53,AVSS2*%
%TO.N,GND*%
X130655002Y-94932398D03*
%TO.P,U1,52,PJ-5_LFXOUT*%
%TO.N,Net-(C1-Pad2)*%
X131155001Y-94932398D03*
%TO.P,U1,51,PJ-4_LFXIN*%
%TO.N,Net-(C2-Pad2)*%
X131655002Y-94932398D03*
%TO.P,U1,50,AVSS1*%
%TO.N,GND*%
X132155001Y-94932398D03*
%TO.P,U1,49,AVCC1*%
%TO.N,+3V3*%
X132655000Y-94932398D03*
D14*
%TO.P,U1,48,P9-7_A15_C15*%
%TO.N,unconnected-(U1-Pad48)*%
X134455002Y-96732397D03*
%TO.P,U1,47,P9-6_A14_C14*%
%TO.N,MAG_1*%
X134455002Y-97232399D03*
%TO.P,U1,46,P9-5_A13_C13*%
%TO.N,MAG_2*%
X134455002Y-97732398D03*
%TO.P,U1,45,P9-4_A12_C12*%
%TO.N,MAG_3*%
X134455002Y-98232399D03*
%TO.P,U1,44,P1-0_TA0-1_DMAE0_RTCCLK_A0_C0_VREF-_VEREF-*%
%TO.N,Net-(R1-Pad1)*%
X134455002Y-98732398D03*
%TO.P,U1,43,P1-1_TA0-2_TA1CLK_COUT_A1_C1_VREF+_VEREF+*%
%TO.N,Net-(R2-Pad1)*%
X134455002Y-99232397D03*
%TO.P,U1,42,P1-2_TA1-1_TA0CLK_COUT_A2_C2*%
%TO.N,unconnected-(U1-Pad42)*%
X134455002Y-99732399D03*
%TO.P,U1,41,P1-3_TA1-2_A3_C3*%
%TO.N,unconnected-(U1-Pad41)*%
X134455002Y-100232398D03*
%TO.P,U1,40,DVCC2*%
%TO.N,+3V3*%
X134455002Y-100732400D03*
%TO.P,U1,39,DVSS2*%
%TO.N,GND*%
X134455002Y-101232398D03*
%TO.P,U1,38,P7-4_SMCLK_S11*%
%TO.N,unconnected-(U1-Pad38)*%
X134455002Y-101732397D03*
%TO.P,U1,37,P7-3_TA0-2_S12*%
%TO.N,H1_IN2*%
X134455002Y-102232399D03*
%TO.P,U1,36,P7-2_TA0-1_S13*%
%TO.N,H1_IN1*%
X134455002Y-102732398D03*
%TO.P,U1,35,P7-1_TA0-0_S14*%
%TO.N,ATT_INT1*%
X134455002Y-103232400D03*
%TO.P,U1,34,P7-0_TA0CLK_S15*%
%TO.N,ATT_INT2*%
X134455002Y-103732399D03*
%TO.P,U1,33,P2-0_UCA0SIMO_UCA0TXD_TB0-6_TB0CLK_S16*%
%TO.N,ATT_SDI*%
X134455002Y-104232398D03*
D13*
%TO.P,U1,32,P2-1_UCA0SOMI_UCA0RXD_TB0-5_DMAE0_S17*%
%TO.N,ATT_SDO*%
X132655000Y-106032399D03*
%TO.P,U1,31,P2-2_UCA0CLK_TB0-4_RTCCLK_S18*%
%TO.N,ATT_SCL*%
X132155001Y-106032399D03*
%TO.P,U1,30,P2-3_UCA0STE_TB0OUTH_S19*%
%TO.N,ATT_CS*%
X131655002Y-106032399D03*
%TO.P,U1,29,P3-7_UCA1STE_TB0-3_S20*%
%TO.N,Net-(U1-Pad29)*%
X131155001Y-106032399D03*
%TO.P,U1,28,P3-6_UCA1CLK_TB0-2_S21*%
%TO.N,Net-(U1-Pad28)*%
X130655002Y-106032399D03*
%TO.P,U1,27,P3-5_UCA1SOMI_UCA1RXD_TB0-1_S22*%
%TO.N,Net-(U1-Pad27)*%
X130155000Y-106032399D03*
%TO.P,U1,26,P3-4_UCA1SIMO_UCA1TXD_TB0-0_S23*%
%TO.N,Net-(U1-Pad26)*%
X129655001Y-106032399D03*
%TO.P,U1,25,P3-3_TA1-1_TB0CLK_S24*%
%TO.N,unconnected-(U1-Pad25)*%
X129155002Y-106032399D03*
%TO.P,U1,24,PJ-3_TCK_COUT_SRCPUOFF*%
%TO.N,unconnected-(U1-Pad24)*%
X128655000Y-106032399D03*
%TO.P,U1,23,PJ-2_TMS_ACLK_SROSCOFF*%
%TO.N,unconnected-(U1-Pad23)*%
X128155002Y-106032399D03*
%TO.P,U1,22,PJ-1_TDI_TCLK_MCLK_SRSCG0*%
%TO.N,unconnected-(U1-Pad22)*%
X127655000Y-106032399D03*
%TO.P,U1,21,PJ-0_TDO_TB0OUTH_SMCLK_SRSCG1*%
%TO.N,unconnected-(U1-Pad21)*%
X127155001Y-106032399D03*
%TO.P,U1,20,RST_NMI_SBWTDIO_N*%
%TO.N,SBWTDIO*%
X126655002Y-106032399D03*
%TO.P,U1,19,TEST_SBWTCK*%
%TO.N,SBWTCK*%
X126155000Y-106032399D03*
%TO.P,U1,18,DVCC1*%
%TO.N,+3V3*%
X125655001Y-106032399D03*
%TO.P,U1,17,DVSS1*%
%TO.N,GND*%
X125155000Y-106032399D03*
D14*
%TO.P,U1,16,P3-2_UCB1SOMI_UCB1SCL_TA3-4_S25*%
%TO.N,unconnected-(U1-Pad16)*%
X123355001Y-104232398D03*
%TO.P,U1,15,P3-1_UCB1SIMO_UCB1SDA_TA3-3_S26*%
%TO.N,H2_IN1*%
X123355001Y-103732399D03*
%TO.P,U1,14,P3-0_UCB1CLK_TA3-2_S27*%
%TO.N,H2_IN2*%
X123355001Y-103232400D03*
%TO.P,U1,13,P6-6_TB0-2_COM3_S28*%
%TO.N,unconnected-(U1-Pad13)*%
X123355001Y-102732398D03*
%TO.P,U1,12,P6-5_TB0-1_COM2_S29*%
%TO.N,unconnected-(U1-Pad12)*%
X123355001Y-102232399D03*
%TO.P,U1,11,P6-4_TB0-0_COM1_S30*%
%TO.N,nSLEEP*%
X123355001Y-101732397D03*
%TO.P,U1,10,P6-3_COM0*%
%TO.N,unconnected-(U1-Pad10)*%
X123355001Y-101232398D03*
%TO.P,U1,9,P6-2_COUT_R03*%
%TO.N,unconnected-(U1-Pad9)*%
X123355001Y-100732400D03*
%TO.P,U1,8,P6-1_R13_LCDREF*%
%TO.N,unconnected-(U1-Pad8)*%
X123355001Y-100232398D03*
%TO.P,U1,7,P6-0_R23*%
%TO.N,unconnected-(U1-Pad7)*%
X123355001Y-99732399D03*
%TO.P,U1,6,R33_LCDCAP*%
%TO.N,unconnected-(U1-Pad6)*%
X123355001Y-99232397D03*
%TO.P,U1,5,P1-7_UCB0SOMI_UCB0SCL_TA0-2_S0*%
%TO.N,unconnected-(U1-Pad5)*%
X123355001Y-98732398D03*
%TO.P,U1,4,P1-6_UCB0SIMO_UCB0SDA_TA0-1_S1*%
%TO.N,unconnected-(U1-Pad4)*%
X123355001Y-98232399D03*
%TO.P,U1,3,P1-5_UCB0STE_UCA0CLK_TA0-0_S2*%
%TO.N,unconnected-(U1-Pad3)*%
X123355001Y-97732398D03*
%TO.P,U1,2,P1-4_UCB0CLK_UCA0STE_TA1-0_S3*%
%TO.N,unconnected-(U1-Pad2)*%
X123355001Y-97232399D03*
%TO.P,U1,1,P4-3_UCA0SOMI_UCA0RXD_UCB1STE_S4*%
%TO.N,BCLUART_RXD*%
X123355001Y-96732397D03*
%TD*%
D15*
%TO.P,,1,1*%
%TO.N,DRV_VM*%
X114122200Y-119126000D03*
%TD*%
%TO.P,L2,1,1*%
%TO.N,Net-(L2-Pad1)*%
X121666000Y-122428000D03*
D16*
%TO.P,L2,2,2*%
%TO.N,Net-(L2-Pad2)*%
X123571000Y-122428000D03*
%TD*%
D17*
%TO.P,C3,1*%
%TO.N,+3V3*%
X147878800Y-98606600D03*
%TO.P,C3,2*%
%TO.N,GND*%
X147878800Y-95906600D03*
%TD*%
D18*
%TO.P,U2,104,52*%
%TO.N,unconnected-(U2-Pad104)*%
X105105200Y-147619400D03*
%TO.P,U2,103,51*%
%TO.N,unconnected-(U2-Pad103)*%
X105105200Y-145079400D03*
%TO.P,U2,102,50*%
%TO.N,unconnected-(U2-Pad102)*%
X107645200Y-147619400D03*
%TO.P,U2,101,49*%
%TO.N,unconnected-(U2-Pad101)*%
X107645200Y-145079400D03*
%TO.P,U2,100,48*%
%TO.N,unconnected-(U2-Pad100)*%
X110185200Y-147619400D03*
%TO.P,U2,99,47*%
%TO.N,unconnected-(U2-Pad99)*%
X110185200Y-145079400D03*
%TO.P,U2,98,V_BAT-46*%
%TO.N,unconnected-(U2-Pad98)*%
X112725200Y-147619400D03*
%TO.P,U2,97,45-V_BAT*%
%TO.N,unconnected-(U2-Pad97)*%
X112725200Y-145079400D03*
%TO.P,U2,96,44*%
%TO.N,unconnected-(U2-Pad96)*%
X115265200Y-147619400D03*
%TO.P,U2,95,43*%
%TO.N,unconnected-(U2-Pad95)*%
X115265200Y-145079400D03*
%TO.P,U2,94,42*%
%TO.N,unconnected-(U2-Pad94)*%
X117805200Y-147619400D03*
%TO.P,U2,93,41*%
%TO.N,unconnected-(U2-Pad93)*%
X117805200Y-145079400D03*
%TO.P,U2,92,40*%
%TO.N,unconnected-(U2-Pad92)*%
X120345200Y-147619400D03*
%TO.P,U2,91,39*%
%TO.N,unconnected-(U2-Pad91)*%
X120345200Y-145079400D03*
%TO.P,U2,90,EPS_TX-38*%
%TO.N,unconnected-(U2-Pad90)*%
X122885200Y-147619400D03*
%TO.P,U2,89,37-TX2*%
%TO.N,unconnected-(U2-Pad89)*%
X122885200Y-145079400D03*
%TO.P,U2,88,EPS_RX-36*%
%TO.N,unconnected-(U2-Pad88)*%
X125425200Y-147619400D03*
%TO.P,U2,87,35-RX2*%
%TO.N,unconnected-(U2-Pad87)*%
X125425200Y-145079400D03*
%TO.P,U2,86,34*%
%TO.N,unconnected-(U2-Pad86)*%
X127965200Y-147619400D03*
%TO.P,U2,85,33*%
%TO.N,unconnected-(U2-Pad85)*%
X127965200Y-145079400D03*
%TO.P,U2,84,GND-32*%
%TO.N,GND*%
X130505200Y-147619400D03*
%TO.P,U2,83,31-AGND*%
%TO.N,unconnected-(U2-Pad83)*%
X130505200Y-145079400D03*
%TO.P,U2,82,GND-30*%
%TO.N,unconnected-(U2-Pad82)*%
X133045200Y-147619400D03*
%TO.P,U2,81,29-GND*%
%TO.N,unconnected-(U2-Pad81)*%
X133045200Y-145079400D03*
%TO.P,U2,80,3V3-28*%
%TO.N,unconnected-(U2-Pad80)*%
X135585200Y-147619400D03*
%TO.P,U2,79,27-3V3*%
%TO.N,unconnected-(U2-Pad79)*%
X135585200Y-145079400D03*
%TO.P,U2,78,5V0-26*%
%TO.N,unconnected-(U2-Pad78)*%
X138125200Y-147619400D03*
%TO.P,U2,77,25-5V0*%
%TO.N,unconnected-(U2-Pad77)*%
X138125200Y-145079400D03*
%TO.P,U2,76,24*%
%TO.N,unconnected-(U2-Pad76)*%
X140665200Y-147619400D03*
%TO.P,U2,75,23*%
%TO.N,unconnected-(U2-Pad75)*%
X140665200Y-145079400D03*
%TO.P,U2,74,22*%
%TO.N,unconnected-(U2-Pad74)*%
X143205200Y-147619400D03*
%TO.P,U2,73,21*%
%TO.N,unconnected-(U2-Pad73)*%
X143205200Y-145079400D03*
%TO.P,U2,72,20*%
%TO.N,unconnected-(U2-Pad72)*%
X145745200Y-147619400D03*
%TO.P,U2,71,19*%
%TO.N,unconnected-(U2-Pad71)*%
X145745200Y-145079400D03*
%TO.P,U2,70,18*%
%TO.N,unconnected-(U2-Pad70)*%
X148285200Y-147619400D03*
%TO.P,U2,69,17*%
%TO.N,unconnected-(U2-Pad69)*%
X148285200Y-145079400D03*
%TO.P,U2,68,16*%
%TO.N,unconnected-(U2-Pad68)*%
X150825200Y-147619400D03*
%TO.P,U2,67,15*%
%TO.N,unconnected-(U2-Pad67)*%
X150825200Y-145079400D03*
%TO.P,U2,66,14*%
%TO.N,unconnected-(U2-Pad66)*%
X153365200Y-147619400D03*
%TO.P,U2,65,13*%
%TO.N,unconnected-(U2-Pad65)*%
X153365200Y-145079400D03*
%TO.P,U2,64,12*%
%TO.N,unconnected-(U2-Pad64)*%
X155905200Y-147619400D03*
%TO.P,U2,63,11*%
%TO.N,unconnected-(U2-Pad63)*%
X155905200Y-145079400D03*
%TO.P,U2,62,10*%
%TO.N,unconnected-(U2-Pad62)*%
X158445200Y-147619400D03*
%TO.P,U2,61,09*%
%TO.N,unconnected-(U2-Pad61)*%
X158445200Y-145079400D03*
%TO.P,U2,60,08*%
%TO.N,unconnected-(U2-Pad60)*%
X160985200Y-147619400D03*
%TO.P,U2,59,07*%
%TO.N,unconnected-(U2-Pad59)*%
X160985200Y-145079400D03*
%TO.P,U2,58,06*%
%TO.N,unconnected-(U2-Pad58)*%
X163525200Y-147619400D03*
%TO.P,U2,57,05*%
%TO.N,unconnected-(U2-Pad57)*%
X163525200Y-145079400D03*
%TO.P,U2,56,04*%
%TO.N,unconnected-(U2-Pad56)*%
X166065200Y-147619400D03*
%TO.P,U2,55,03*%
%TO.N,unconnected-(U2-Pad55)*%
X166065200Y-145079400D03*
%TO.P,U2,54,02*%
%TO.N,unconnected-(U2-Pad54)*%
X168605200Y-147619400D03*
%TO.P,U2,53,01*%
%TO.N,unconnected-(U2-Pad53)*%
X168605200Y-145079400D03*
%TO.P,U2,52,OUT6_3V3-52*%
%TO.N,+3V3*%
X105105200Y-142539400D03*
%TO.P,U2,51,51-OUT3_5V0*%
%TO.N,+5V*%
X105105200Y-139999400D03*
%TO.P,U2,50,OUT5_3V3-50*%
%TO.N,unconnected-(U2-Pad50)*%
X107645200Y-142539400D03*
%TO.P,U2,49,49-OUT2_5V0*%
%TO.N,unconnected-(U2-Pad49)*%
X107645200Y-139999400D03*
%TO.P,U2,48,OUT4_3V3-48*%
%TO.N,unconnected-(U2-Pad48)*%
X110185200Y-142539400D03*
%TO.P,U2,47,47-OUT1_5V0*%
%TO.N,unconnected-(U2-Pad47)*%
X110185200Y-139999400D03*
%TO.P,U2,46,46*%
%TO.N,unconnected-(U2-Pad46)*%
X112725200Y-142539400D03*
%TO.P,U2,45,45*%
%TO.N,unconnected-(U2-Pad45)*%
X112725200Y-139999400D03*
%TO.P,U2,44,44*%
%TO.N,unconnected-(U2-Pad44)*%
X115265200Y-142539400D03*
%TO.P,U2,43,43-I2C-SCL*%
%TO.N,unconnected-(U2-Pad43)*%
X115265200Y-139999400D03*
%TO.P,U2,42,42*%
%TO.N,unconnected-(U2-Pad42)*%
X117805200Y-142539400D03*
%TO.P,U2,41,41-I2C-SDA*%
%TO.N,unconnected-(U2-Pad41)*%
X117805200Y-139999400D03*
%TO.P,U2,40,RXD-40*%
%TO.N,unconnected-(U2-Pad40)*%
X120345200Y-142539400D03*
%TO.P,U2,39,39-TXD*%
%TO.N,unconnected-(U2-Pad39)*%
X120345200Y-139999400D03*
%TO.P,U2,38,38*%
%TO.N,unconnected-(U2-Pad38)*%
X122885200Y-142539400D03*
%TO.P,U2,37,37*%
%TO.N,unconnected-(U2-Pad37)*%
X122885200Y-139999400D03*
%TO.P,U2,36,36*%
%TO.N,unconnected-(U2-Pad36)*%
X125425200Y-142539400D03*
%TO.P,U2,35,35*%
%TO.N,unconnected-(U2-Pad35)*%
X125425200Y-139999400D03*
%TO.P,U2,34,34*%
%TO.N,unconnected-(U2-Pad34)*%
X127965200Y-142539400D03*
%TO.P,U2,33,33*%
%TO.N,unconnected-(U2-Pad33)*%
X127965200Y-139999400D03*
%TO.P,U2,32,5V0_IN-32*%
%TO.N,unconnected-(U2-Pad32)*%
X130505200Y-142539400D03*
%TO.P,U2,31,31*%
%TO.N,unconnected-(U2-Pad31)*%
X130505200Y-139999400D03*
%TO.P,U2,30,30*%
%TO.N,unconnected-(U2-Pad30)*%
X133045200Y-142539400D03*
%TO.P,U2,29,29*%
%TO.N,unconnected-(U2-Pad29)*%
X133045200Y-139999400D03*
%TO.P,U2,28,28*%
%TO.N,unconnected-(U2-Pad28)*%
X135585200Y-142539400D03*
%TO.P,U2,27,27*%
%TO.N,unconnected-(U2-Pad27)*%
X135585200Y-139999400D03*
%TO.P,U2,26,26*%
%TO.N,unconnected-(U2-Pad26)*%
X138125200Y-142539400D03*
%TO.P,U2,25,25*%
%TO.N,unconnected-(U2-Pad25)*%
X138125200Y-139999400D03*
%TO.P,U2,24,24*%
%TO.N,unconnected-(U2-Pad24)*%
X140665200Y-142539400D03*
%TO.P,U2,23,23*%
%TO.N,unconnected-(U2-Pad23)*%
X140665200Y-139999400D03*
%TO.P,U2,22,22*%
%TO.N,unconnected-(U2-Pad22)*%
X143205200Y-142539400D03*
%TO.P,U2,21,21*%
%TO.N,unconnected-(U2-Pad21)*%
X143205200Y-139999400D03*
%TO.P,U2,20,TX-20*%
%TO.N,unconnected-(U2-Pad20)*%
X145745200Y-142539400D03*
%TO.P,U2,19,19-RX*%
%TO.N,unconnected-(U2-Pad19)*%
X145745200Y-139999400D03*
%TO.P,U2,18,18*%
%TO.N,unconnected-(U2-Pad18)*%
X148285200Y-142539400D03*
%TO.P,U2,17,17*%
%TO.N,unconnected-(U2-Pad17)*%
X148285200Y-139999400D03*
%TO.P,U2,16,16*%
%TO.N,unconnected-(U2-Pad16)*%
X150825200Y-142539400D03*
%TO.P,U2,15,15*%
%TO.N,unconnected-(U2-Pad15)*%
X150825200Y-139999400D03*
%TO.P,U2,14,14*%
%TO.N,unconnected-(U2-Pad14)*%
X153365200Y-142539400D03*
%TO.P,U2,13,13*%
%TO.N,unconnected-(U2-Pad13)*%
X153365200Y-139999400D03*
%TO.P,U2,12,12*%
%TO.N,SPI-CS*%
X155905200Y-142539400D03*
%TO.P,U2,11,11-I2C2_SCL*%
%TO.N,SPI-MOSI*%
X155905200Y-139999400D03*
%TO.P,U2,10,10*%
%TO.N,SPI-MISO*%
X158445200Y-142539400D03*
%TO.P,U2,9,09-I2C2_SDA*%
%TO.N,SPI-CLK*%
X158445200Y-139999400D03*
%TO.P,U2,8,08*%
%TO.N,unconnected-(U2-Pad8)*%
X160985200Y-142539400D03*
%TO.P,U2,7,07*%
%TO.N,unconnected-(U2-Pad7)*%
X160985200Y-139999400D03*
%TO.P,U2,6,06*%
%TO.N,unconnected-(U2-Pad6)*%
X163525200Y-142539400D03*
%TO.P,U2,5,05*%
%TO.N,unconnected-(U2-Pad5)*%
X163525200Y-139999400D03*
%TO.P,U2,4,04*%
%TO.N,unconnected-(U2-Pad4)*%
X166065200Y-142539400D03*
%TO.P,U2,3,03-CAN-H*%
%TO.N,unconnected-(U2-Pad3)*%
X166065200Y-139999400D03*
%TO.P,U2,2,02*%
%TO.N,unconnected-(U2-Pad2)*%
X168605200Y-142539400D03*
D19*
%TO.P,U2,1,01-CAN-L*%
%TO.N,unconnected-(U2-Pad1)*%
X168605200Y-139999400D03*
D20*
%TO.P,U2,*%
%TO.N,*%
X97485200Y-61869400D03*
X177495200Y-61869400D03*
X173685200Y-147599400D03*
X100025200Y-147599400D03*
%TD*%
D21*
%TO.P,C2,1*%
%TO.N,GND*%
X120995400Y-83972400D03*
%TO.P,C2,2*%
%TO.N,Net-(C2-Pad2)*%
X122895400Y-83972400D03*
%TD*%
%TO.P,C7,1*%
%TO.N,+3V3*%
X123764000Y-91059000D03*
%TO.P,C7,2*%
%TO.N,GND*%
X125664000Y-91059000D03*
%TD*%
D22*
%TO.P,C5,1*%
%TO.N,+3V3*%
X136906000Y-95006200D03*
%TO.P,C5,2*%
%TO.N,GND*%
X136906000Y-93106200D03*
%TD*%
D23*
%TO.P,R2,1*%
%TO.N,Net-(R2-Pad1)*%
X154129100Y-93548200D03*
%TO.P,R2,2*%
%TO.N,Net-(D2-Pad2)*%
X155954100Y-93548200D03*
%TD*%
D24*
%TO.P,Y1,1,1*%
%TO.N,Net-(C1-Pad2)*%
X117438000Y-77698600D03*
%TO.P,Y1,2,2*%
%TO.N,Net-(C2-Pad2)*%
X122318000Y-77698600D03*
%TD*%
D22*
%TO.P,C4,1*%
%TO.N,+3V3*%
X120853200Y-106893400D03*
%TO.P,C4,2*%
%TO.N,GND*%
X120853200Y-104993400D03*
%TD*%
D10*
%TO.P,U6,1,VM*%
%TO.N,DRV_VM*%
X111263999Y-86040001D03*
%TO.P,U6,2,OUT1*%
%TO.N,Net-(L3-Pad1)*%
X111764000Y-86040001D03*
%TO.P,U6,3,OUT2*%
%TO.N,Net-(L3-Pad2)*%
X112264000Y-86040001D03*
%TO.P,U6,4,GND*%
%TO.N,GND*%
X112764001Y-86040001D03*
%TO.P,U6,5,IN2*%
%TO.N,H3_IN2*%
X112764001Y-84139999D03*
%TO.P,U6,6,IN1*%
%TO.N,H3_IN1*%
X112264000Y-84139999D03*
%TO.P,U6,7,NSLEEP*%
%TO.N,nSLEEP*%
X111764000Y-84139999D03*
%TO.P,U6,8,VCC*%
%TO.N,DRV_VM*%
X111263999Y-84139999D03*
D11*
%TO.P,U6,9*%
%TO.N,N/C*%
X112014000Y-85090000D03*
%TD*%
D25*
%TO.P,J1,1,Pin_1*%
%TO.N,SBWTCK*%
X115620800Y-97099200D03*
D26*
%TO.P,J1,2,Pin_2*%
%TO.N,SBWTDIO*%
X115620800Y-99639200D03*
%TO.P,J1,3,Pin_3*%
%TO.N,BCLUART_RXD*%
X115620800Y-102179200D03*
%TO.P,J1,4,Pin_4*%
%TO.N,BCLUART_TXD*%
X115620800Y-104719200D03*
%TO.P,J1,5,Pin_5*%
%TO.N,unconnected-(J1-Pad5)*%
X115620800Y-107259200D03*
%TO.P,J1,6,Pin_6*%
%TO.N,+3V3*%
X115620800Y-109799200D03*
%TO.P,J1,7,Pin_7*%
%TO.N,GND*%
X115620800Y-112339200D03*
%TD*%
D22*
%TO.P,C6,1*%
%TO.N,+3V3*%
X140335000Y-95006200D03*
%TO.P,C6,2*%
%TO.N,GND*%
X140335000Y-93106200D03*
%TD*%
D23*
%TO.P,R1,1*%
%TO.N,Net-(R1-Pad1)*%
X154154500Y-90195400D03*
%TO.P,R1,2*%
%TO.N,Net-(D1-Pad2)*%
X155979500Y-90195400D03*
%TD*%
D27*
%TO.P,REF\u002A\u002A,*%
%TO.N,*%
X107804400Y-60548800D03*
X99607400Y-139473800D03*
X160547400Y-70816800D03*
X99607400Y-114773800D03*
X158567400Y-107743800D03*
X98082400Y-107773800D03*
X178277400Y-133816800D03*
X98147400Y-70201800D03*
X167047400Y-64316800D03*
X156577400Y-114773800D03*
X157596400Y-60520800D03*
X158567400Y-79319800D03*
%TD*%
D28*
%TO.P,C1,1*%
%TO.N,GND*%
X119034600Y-83972400D03*
%TO.P,C1,2*%
%TO.N,Net-(C1-Pad2)*%
X117134600Y-83972400D03*
%TD*%
D29*
%TO.P,D2,1,K*%
%TO.N,GND*%
X164084100Y-93548200D03*
%TO.P,D2,2,A*%
%TO.N,Net-(D2-Pad2)*%
X162509100Y-93548200D03*
%TD*%
%TO.P,D1,1,K*%
%TO.N,GND*%
X164084100Y-90195400D03*
%TO.P,D1,2,A*%
%TO.N,Net-(D1-Pad2)*%
X162509100Y-90195400D03*
%TD*%
D30*
%TO.P,U3,1,SDO/SA0*%
%TO.N,ATT_SDO*%
X141413611Y-106095800D03*
%TO.P,U3,2,SDx*%
%TO.N,GND*%
X141913737Y-106095800D03*
%TO.P,U3,3,SCx*%
X142413863Y-106095800D03*
%TO.P,U3,4,INT1*%
%TO.N,ATT_INT1*%
X142913989Y-106095800D03*
D31*
%TO.P,U3,5,VDDIO*%
%TO.N,+3V3*%
X143129000Y-105376726D03*
%TO.P,U3,6,GND*%
%TO.N,GND*%
X143129000Y-104876600D03*
%TO.P,U3,7,GND*%
X143129000Y-104376474D03*
D30*
%TO.P,U3,8,VDD*%
%TO.N,+3V3*%
X142913989Y-103657400D03*
%TO.P,U3,9,INT2*%
%TO.N,ATT_INT2*%
X142413863Y-103657400D03*
%TO.P,U3,10,NC*%
%TO.N,unconnected-(U3-Pad10)*%
X141913737Y-103657400D03*
%TO.P,U3,11,NC*%
%TO.N,unconnected-(U3-Pad11)*%
X141413611Y-103657400D03*
D31*
%TO.P,U3,12,CS*%
%TO.N,ATT_CS*%
X141198600Y-104376474D03*
%TO.P,U3,13,SCL*%
%TO.N,ATT_SCL*%
X141198600Y-104876600D03*
%TO.P,U3,14,SDA*%
%TO.N,ATT_SDI*%
X141198600Y-105376726D03*
%TD*%
D15*
%TO.P,,1,1*%
%TO.N,DRV_VM*%
X108712000Y-86106000D03*
%TD*%
%TO.P,L3,1,1*%
%TO.N,Net-(L3-Pad1)*%
X111315500Y-89816000D03*
D16*
%TO.P,L3,2,2*%
%TO.N,Net-(L3-Pad2)*%
X113220500Y-89816000D03*
%TD*%
D15*
%TO.P,,1,1*%
%TO.N,DRV_VM*%
X150545800Y-78333600D03*
%TD*%
D22*
%TO.P,C9,1*%
%TO.N,+3V3*%
X147943800Y-107416600D03*
%TO.P,C9,2*%
%TO.N,GND*%
X147943800Y-105516600D03*
%TD*%
D32*
%TO.P,C8,1*%
%TO.N,+3V3*%
X147933800Y-101836600D03*
%TO.P,C8,2*%
%TO.N,GND*%
X147933800Y-103736600D03*
%TD*%
D15*
%TO.P,L1,1,1*%
%TO.N,Net-(L1-Pad1)*%
X165508000Y-77914500D03*
D16*
%TO.P,L1,2,2*%
%TO.N,Net-(L1-Pad2)*%
X165508000Y-76009500D03*
%TD*%
D33*
%TO.P,U4,1,VM*%
%TO.N,DRV_VM*%
X150556001Y-76442001D03*
%TO.P,U4,2,OUT1*%
%TO.N,Net-(L1-Pad1)*%
X150556001Y-75942000D03*
%TO.P,U4,3,OUT2*%
%TO.N,Net-(L1-Pad2)*%
X150556001Y-75442000D03*
%TO.P,U4,4,GND*%
%TO.N,GND*%
X150556001Y-74941999D03*
%TO.P,U4,5,IN2*%
%TO.N,H1_IN2*%
X148655999Y-74941999D03*
%TO.P,U4,6,IN1*%
%TO.N,H1_IN1*%
X148655999Y-75442000D03*
%TO.P,U4,7,NSLEEP*%
%TO.N,nSLEEP*%
X148655999Y-75942000D03*
%TO.P,U4,8,VCC*%
%TO.N,DRV_VM*%
X148655999Y-76442001D03*
D34*
%TO.P,U4,9*%
%TO.N,N/C*%
X149606000Y-75692000D03*
%TD*%
D25*
%TO.P,J2,1,Pin_1*%
%TO.N,DRV_VM*%
X102560200Y-129154000D03*
D26*
%TO.P,J2,2,Pin_2*%
X105100200Y-129154000D03*
%TO.P,J2,3,Pin_3*%
%TO.N,+3V3*%
X102560200Y-131694000D03*
%TO.P,J2,4,Pin_4*%
%TO.N,+5V*%
X105100200Y-131694000D03*
%TD*%
D35*
%TO.P,IC1,1,VCC*%
%TO.N,+3V3*%
X169672000Y-135890000D03*
D36*
%TO.P,IC1,2,GND*%
%TO.N,GND*%
X170942000Y-135890000D03*
%TO.P,IC1,3,OUTPUT*%
%TO.N,MAG_1*%
X172212000Y-135890000D03*
%TD*%
D37*
%TO.P,IC2,1,VCC*%
%TO.N,+3V3*%
X93980000Y-128270000D03*
D38*
%TO.P,IC2,2,GND*%
%TO.N,GND*%
X93980000Y-127000000D03*
%TO.P,IC2,3,OUTPUT*%
%TO.N,MAG_2*%
X93980000Y-125730000D03*
%TD*%
D39*
%TO.P,IC3,1,VCC*%
%TO.N,+3V3*%
X132080000Y-84582000D03*
D38*
%TO.P,IC3,2,GND*%
%TO.N,GND*%
X132080000Y-85852000D03*
%TO.P,IC3,3,OUTPUT*%
%TO.N,MAG_3*%
X132080000Y-87122000D03*
%TD*%
D40*
%TO.N,GND*%
X122707400Y-105384600D03*
%TO.N,H2_IN2*%
X125069600Y-114274600D03*
%TO.N,H2_IN1*%
X123190000Y-114350800D03*
X125401001Y-103732399D03*
%TO.N,H2_IN2*%
X125298200Y-102082600D03*
%TO.N,SPI-CS*%
X159613600Y-136474200D03*
X154228800Y-138099800D03*
%TO.N,GND*%
X153441400Y-97002600D03*
X144094200Y-91109800D03*
X151028400Y-106857800D03*
%TO.N,MAG_2*%
X153822400Y-80873600D03*
%TO.N,MAG_3*%
X140258800Y-88722200D03*
X140436600Y-97256600D03*
%TO.N,MAG_1*%
X139217400Y-96316800D03*
%TO.N,nSLEEP*%
X121315797Y-101732397D03*
X111201200Y-116205000D03*
%TO.N,H1_IN1*%
X141935200Y-100939600D03*
%TO.N,H1_IN2*%
X138607800Y-100228400D03*
%TO.N,H1_IN1*%
X141249400Y-81153000D03*
%TO.N,H1_IN2*%
X139319000Y-81356200D03*
%TO.N,GND*%
X151892000Y-74676000D03*
X128397000Y-97028000D03*
X126746000Y-121666000D03*
X119761000Y-81915000D03*
%TO.N,ATT_SCL*%
X138201400Y-104546400D03*
X133680200Y-108407200D03*
%TO.N,ATT_CS*%
X135483600Y-109423200D03*
X138430000Y-103047800D03*
%TO.N,ATT_INT1*%
X144818100Y-106870500D03*
X139827000Y-101650800D03*
%TO.N,nSLEEP*%
X142494000Y-76708000D03*
X110998000Y-81534000D03*
%TO.N,H3_IN2*%
X128295400Y-90957400D03*
X115392200Y-82550000D03*
%TO.N,H3_IN1*%
X129667000Y-91744800D03*
X112522000Y-81534000D03*
%TO.N,+3V3*%
X128930400Y-100584000D03*
%TD*%
D41*
%TO.N,GND*%
X122593001Y-105498999D02*
X122707400Y-105384600D01*
X122593001Y-106032399D02*
X122593001Y-105498999D01*
X122593001Y-106032399D02*
X125155000Y-106032399D01*
X121892199Y-106032399D02*
X122593001Y-106032399D01*
X120853200Y-104993400D02*
X121892199Y-106032399D01*
D42*
%TO.N,H2_IN2*%
X123686001Y-115658199D02*
X125069600Y-114274600D01*
X123686001Y-117159999D02*
X123686001Y-115658199D01*
%TO.N,H2_IN1*%
X123186000Y-114354800D02*
X123186000Y-117159999D01*
X123190000Y-114350800D02*
X123186000Y-114354800D01*
X123355001Y-103732399D02*
X125401001Y-103732399D01*
%TO.N,H2_IN2*%
X124148400Y-103232400D02*
X125298200Y-102082600D01*
X123355001Y-103232400D02*
X124148400Y-103232400D01*
D41*
%TO.N,SPI-CS*%
X159613600Y-133932300D02*
X157861000Y-132179700D01*
X159613600Y-136474200D02*
X159613600Y-133932300D01*
X154416711Y-138287711D02*
X154228800Y-138099800D01*
X154416711Y-141050911D02*
X154416711Y-138287711D01*
X155905200Y-142539400D02*
X154416711Y-141050911D01*
%TO.N,SPI-CLK*%
X158445200Y-134770500D02*
X158445200Y-139999400D01*
X155854400Y-132179700D02*
X158445200Y-134770500D01*
%TO.N,SPI-MISO*%
X153873200Y-132154300D02*
X157393689Y-135674789D01*
X157393689Y-135674789D02*
X157393689Y-141487889D01*
X157393689Y-141487889D02*
X158445200Y-142539400D01*
%TO.N,SPI-MOSI*%
X155905200Y-136192900D02*
X155905200Y-139999400D01*
X151866600Y-132154300D02*
X155905200Y-136192900D01*
%TO.N,Net-(U1-Pad27)*%
X152171400Y-124536200D02*
X153873200Y-126238000D01*
X130155000Y-107752200D02*
X146939000Y-124536200D01*
X130155000Y-106032399D02*
X130155000Y-107752200D01*
X146939000Y-124536200D02*
X152171400Y-124536200D01*
X153873200Y-126238000D02*
X153873200Y-130329300D01*
%TO.N,Net-(U1-Pad26)*%
X151866600Y-125755400D02*
X151866600Y-130329300D01*
X146863720Y-124993400D02*
X151104600Y-124993400D01*
X151104600Y-124993400D02*
X151866600Y-125755400D01*
X129655001Y-107784681D02*
X146863720Y-124993400D01*
X129655001Y-106032399D02*
X129655001Y-107784681D01*
%TO.N,Net-(U1-Pad28)*%
X155727400Y-126161800D02*
X155727400Y-130227700D01*
X155727400Y-130227700D02*
X155854400Y-130354700D01*
X147015200Y-124079000D02*
X153644600Y-124079000D01*
X153644600Y-124079000D02*
X155727400Y-126161800D01*
X130655002Y-107718802D02*
X147015200Y-124079000D01*
X130655002Y-106032399D02*
X130655002Y-107718802D01*
%TO.N,Net-(U1-Pad29)*%
X154127200Y-123672600D02*
X157861000Y-127406400D01*
X147269200Y-123672600D02*
X154127200Y-123672600D01*
X157861000Y-127406400D02*
X157861000Y-130354700D01*
X131155001Y-107558401D02*
X147269200Y-123672600D01*
X131155001Y-106032399D02*
X131155001Y-107558401D01*
D42*
%TO.N,ATT_CS*%
X133654800Y-109423200D02*
X135483600Y-109423200D01*
X131655002Y-107423402D02*
X133654800Y-109423200D01*
X131655002Y-106032399D02*
X131655002Y-107423402D01*
%TO.N,GND*%
X153441400Y-96901000D02*
X153441400Y-97002600D01*
X152447000Y-95906600D02*
X153441400Y-96901000D01*
X152447000Y-95906600D02*
X161725700Y-95906600D01*
X147878800Y-95906600D02*
X152447000Y-95906600D01*
D41*
X142097800Y-93106200D02*
X144094200Y-91109800D01*
X140335000Y-93106200D02*
X142097800Y-93106200D01*
D42*
X149687200Y-105516600D02*
X151028400Y-106857800D01*
X147943800Y-105516600D02*
X149687200Y-105516600D01*
X151028400Y-106831200D02*
X151028400Y-106857800D01*
X147933800Y-103736600D02*
X151028400Y-106831200D01*
%TO.N,+3V3*%
X152577800Y-106480600D02*
X147933800Y-101836600D01*
X152577800Y-112050600D02*
X152577800Y-106480600D01*
X152577800Y-118795800D02*
X152577800Y-112050600D01*
X169672000Y-135890000D02*
X152577800Y-118795800D01*
X152577800Y-112050600D02*
X147943800Y-107416600D01*
%TO.N,MAG_2*%
X153822400Y-84353400D02*
X153822400Y-80873600D01*
X142062200Y-96113600D02*
X153822400Y-84353400D01*
X140255003Y-96113600D02*
X142062200Y-96113600D01*
X139035803Y-97332800D02*
X140255003Y-96113600D01*
X137185400Y-97332800D02*
X139035803Y-97332800D01*
D41*
%TO.N,+3V3*%
X147878800Y-101781600D02*
X147933800Y-101836600D01*
X147878800Y-98606600D02*
X147878800Y-101781600D01*
D42*
%TO.N,GND*%
X161725700Y-95906600D02*
X164084100Y-93548200D01*
D43*
%TO.N,+3V3*%
X112450800Y-109799200D02*
X115620800Y-109799200D01*
X106593689Y-115656311D02*
X112450800Y-109799200D01*
D42*
%TO.N,MAG_2*%
X136144000Y-97332800D02*
X137185400Y-97332800D01*
X135991600Y-97485200D02*
X136144000Y-97332800D01*
X135744402Y-97732398D02*
X135991600Y-97485200D01*
X134455002Y-97732398D02*
X135744402Y-97732398D01*
%TO.N,MAG_3*%
X140258800Y-88722200D02*
X138658600Y-87122000D01*
X138658600Y-87122000D02*
X132080000Y-87122000D01*
X139460801Y-98232399D02*
X140436600Y-97256600D01*
X134455002Y-98232399D02*
X139460801Y-98232399D01*
%TO.N,MAG_1*%
X135304601Y-97232399D02*
X136220200Y-96316800D01*
X134455002Y-97232399D02*
X135304601Y-97232399D01*
X136220200Y-96316800D02*
X139217400Y-96316800D01*
%TO.N,nSLEEP*%
X123355001Y-101732397D02*
X121315797Y-101732397D01*
X122529600Y-116205000D02*
X111201200Y-116205000D01*
X122686000Y-116361400D02*
X122529600Y-116205000D01*
X122686000Y-117159999D02*
X122686000Y-116361400D01*
%TO.N,GND*%
X147806400Y-95834200D02*
X147878800Y-95906600D01*
X144449800Y-95834200D02*
X147806400Y-95834200D01*
X140798083Y-99485917D02*
X144449800Y-95834200D01*
X135205002Y-101232398D02*
X136951483Y-99485917D01*
X136951483Y-99485917D02*
X140798083Y-99485917D01*
X134455002Y-101232398D02*
X135205002Y-101232398D01*
%TO.N,H1_IN2*%
X138049000Y-100228400D02*
X138607800Y-100228400D01*
X136045001Y-102232399D02*
X138049000Y-100228400D01*
%TO.N,H1_IN1*%
X138353800Y-100939600D02*
X141935200Y-100939600D01*
X136561002Y-102732398D02*
X138353800Y-100939600D01*
X141249400Y-79476600D02*
X141249400Y-81153000D01*
%TO.N,H1_IN2*%
X139319000Y-80314800D02*
X139319000Y-81356200D01*
X139319000Y-75869800D02*
X139319000Y-80314800D01*
%TO.N,H1_IN1*%
X141249400Y-76073000D02*
X141249400Y-79476600D01*
%TO.N,H1_IN2*%
X134455002Y-102232399D02*
X136045001Y-102232399D01*
%TO.N,H1_IN1*%
X134455002Y-102732398D02*
X136561002Y-102732398D01*
%TO.N,H1_IN2*%
X140246801Y-74941999D02*
X139319000Y-75869800D01*
X148655999Y-74941999D02*
X140246801Y-74941999D01*
%TO.N,H1_IN1*%
X141880400Y-75442000D02*
X141249400Y-76073000D01*
X148655999Y-75442000D02*
X141880400Y-75442000D01*
%TO.N,GND*%
X164084100Y-90195400D02*
X164084100Y-93548200D01*
%TO.N,Net-(D1-Pad2)*%
X155979500Y-90195400D02*
X162509100Y-90195400D01*
%TO.N,Net-(D2-Pad2)*%
X155954100Y-93548200D02*
X162509100Y-93548200D01*
%TO.N,Net-(R2-Pad1)*%
X140340403Y-99232397D02*
X134455002Y-99232397D01*
X152986100Y-94691200D02*
X144881600Y-94691200D01*
X154129100Y-93548200D02*
X152986100Y-94691200D01*
X144881600Y-94691200D02*
X140340403Y-99232397D01*
%TO.N,Net-(R1-Pad1)*%
X144748620Y-94316180D02*
X140332402Y-98732398D01*
X140332402Y-98732398D02*
X134455002Y-98732398D01*
X150033720Y-94316180D02*
X144748620Y-94316180D01*
X154154500Y-90195400D02*
X150033720Y-94316180D01*
%TO.N,GND*%
X120645001Y-86040001D02*
X125664000Y-91059000D01*
X112764001Y-86040001D02*
X120645001Y-86040001D01*
X141913737Y-106095800D02*
X142413863Y-106095800D01*
D41*
X119761000Y-81915000D02*
X120995400Y-83149400D01*
X147303800Y-104876600D02*
X143129000Y-104876600D01*
X126155000Y-91407800D02*
X126155000Y-94932398D01*
X119034600Y-83972400D02*
X119034600Y-82641400D01*
X140335000Y-93106200D02*
X136906000Y-93106200D01*
X129155002Y-94932398D02*
X129155002Y-96269998D01*
X119034600Y-82641400D02*
X119761000Y-81915000D01*
D42*
X142722600Y-104876600D02*
X142413863Y-105185337D01*
D41*
X147293926Y-104376474D02*
X143129000Y-104376474D01*
X136906000Y-93106200D02*
X133163365Y-93106200D01*
D42*
X142413863Y-105185337D02*
X142413863Y-106095800D01*
D43*
X150556001Y-74941999D02*
X151626001Y-74941999D01*
D41*
X126155000Y-96082397D02*
X127100603Y-97028000D01*
X147943800Y-105516600D02*
X147303800Y-104876600D01*
D43*
X123686001Y-119060001D02*
X124140001Y-119060001D01*
D41*
X127100603Y-97028000D02*
X128397000Y-97028000D01*
X129155002Y-96269998D02*
X128397000Y-97028000D01*
X126155000Y-94932398D02*
X126155000Y-96082397D01*
D43*
X124140001Y-119060001D02*
X126746000Y-121666000D01*
D41*
X132155001Y-94114564D02*
X132155001Y-94932398D01*
X129709399Y-97028000D02*
X130655002Y-96082397D01*
X132155001Y-95750232D02*
X132155001Y-94932398D01*
X128397000Y-97028000D02*
X129709399Y-97028000D01*
D43*
X151626001Y-74941999D02*
X151892000Y-74676000D01*
D41*
X130877233Y-97028000D02*
X132155001Y-95750232D01*
X133163365Y-93106200D02*
X132155001Y-94114564D01*
D42*
X143129000Y-104876600D02*
X142722600Y-104876600D01*
D41*
X130655002Y-96082397D02*
X130655002Y-94932398D01*
X120995400Y-83149400D02*
X120995400Y-83972400D01*
X125806200Y-91059000D02*
X126155000Y-91407800D01*
D42*
X143129000Y-104376474D02*
X143129000Y-104876600D01*
D41*
X125664000Y-91059000D02*
X125806200Y-91059000D01*
X147933800Y-103736600D02*
X147293926Y-104376474D01*
X128397000Y-97028000D02*
X130877233Y-97028000D01*
%TO.N,Net-(C1-Pad2)*%
X117134600Y-83972400D02*
X117438000Y-83669000D01*
X117438000Y-83669000D02*
X117438000Y-77698600D01*
X127990600Y-85699600D02*
X131155001Y-88864001D01*
X131155001Y-88864001D02*
X131155001Y-93917602D01*
X117134600Y-83972400D02*
X118861800Y-85699600D01*
X131155001Y-93917602D02*
X131155001Y-94932398D01*
X118861800Y-85699600D02*
X127990600Y-85699600D01*
%TO.N,Net-(C2-Pad2)*%
X122895400Y-83972400D02*
X122318000Y-83395000D01*
X127127000Y-83921600D02*
X122946200Y-83921600D01*
X122318000Y-83395000D02*
X122318000Y-77698600D01*
X127127000Y-83921600D02*
X131655002Y-88449602D01*
X131655002Y-88449602D02*
X131655002Y-94932398D01*
X122946200Y-83921600D02*
X122895400Y-83972400D01*
D42*
%TO.N,SBWTCK*%
X126155000Y-107372600D02*
X126155000Y-106032399D01*
X117525800Y-106654600D02*
X118948200Y-108077000D01*
X125450600Y-108077000D02*
X126155000Y-107372600D01*
X117525800Y-99004200D02*
X117525800Y-106654600D01*
X118948200Y-108077000D02*
X125450600Y-108077000D01*
X115620800Y-97099200D02*
X117525800Y-99004200D01*
%TO.N,SBWTDIO*%
X117221000Y-101239400D02*
X117221000Y-106934000D01*
X126655002Y-107786998D02*
X126655002Y-106032399D01*
X126060200Y-108381800D02*
X126655002Y-107786998D01*
X117221000Y-106934000D02*
X118668800Y-108381800D01*
X118668800Y-108381800D02*
X126060200Y-108381800D01*
X115620800Y-99639200D02*
X117221000Y-101239400D01*
%TO.N,BCLUART_TXD*%
X115620800Y-104719200D02*
X114327269Y-103425669D01*
X114327269Y-103425669D02*
X114327269Y-96057999D01*
X115452870Y-94932398D02*
X125155000Y-94932398D01*
X114327269Y-96057999D02*
X115452870Y-94932398D01*
%TO.N,BCLUART_RXD*%
X122380604Y-95758000D02*
X123355001Y-96732397D01*
X114580789Y-96163011D02*
X114985800Y-95758000D01*
X114580789Y-101139189D02*
X114580789Y-96163011D01*
X115620800Y-102179200D02*
X114580789Y-101139189D01*
X114985800Y-95758000D02*
X122380604Y-95758000D01*
%TO.N,ATT_SDI*%
X141198600Y-105376726D02*
X135599330Y-105376726D01*
X135599330Y-105376726D02*
X134455002Y-104232398D01*
%TO.N,ATT_SDO*%
X132718401Y-106095800D02*
X132655000Y-106032399D01*
X141413611Y-106095800D02*
X132718401Y-106095800D01*
%TO.N,ATT_SCL*%
X133680200Y-108407200D02*
X132155001Y-106882001D01*
X132155001Y-106882001D02*
X132155001Y-106032399D01*
X141198600Y-104876600D02*
X138531600Y-104876600D01*
X138531600Y-104876600D02*
X138201400Y-104546400D01*
%TO.N,ATT_CS*%
X141198600Y-104376474D02*
X139758674Y-104376474D01*
X139758674Y-104376474D02*
X138430000Y-103047800D01*
%TO.N,ATT_INT2*%
X142113000Y-102260400D02*
X138252200Y-102260400D01*
X136780201Y-103732399D02*
X134455002Y-103732399D01*
X138252200Y-102260400D02*
X136780201Y-103732399D01*
X142413863Y-103657400D02*
X142413863Y-102561263D01*
X142413863Y-102561263D02*
X142113000Y-102260400D01*
%TO.N,ATT_INT1*%
X142913989Y-106095800D02*
X144043400Y-106095800D01*
X139827000Y-101650800D02*
X138480800Y-101650800D01*
X144043400Y-106095800D02*
X144818100Y-106870500D01*
X136899200Y-103232400D02*
X134455002Y-103232400D01*
X138480800Y-101650800D02*
X136899200Y-103232400D01*
%TO.N,nSLEEP*%
X110998000Y-81534000D02*
X111764000Y-82300000D01*
X143260000Y-75942000D02*
X148655999Y-75942000D01*
X142494000Y-76708000D02*
X143260000Y-75942000D01*
X111764000Y-82300000D02*
X111764000Y-84139999D01*
%TO.N,H3_IN2*%
X126655002Y-94932398D02*
X126655002Y-92597798D01*
X126655002Y-92597798D02*
X128295400Y-90957400D01*
X113538000Y-82550000D02*
X112764001Y-83323999D01*
X112764001Y-84139999D02*
X112764001Y-83323999D01*
X115392200Y-82550000D02*
X113538000Y-82550000D01*
%TO.N,H3_IN1*%
X127155001Y-92910599D02*
X127155001Y-94932398D01*
X112264000Y-81792000D02*
X112522000Y-81534000D01*
X112264000Y-84139999D02*
X112264000Y-81792000D01*
X128320800Y-91744800D02*
X127155001Y-92910599D01*
X129667000Y-91744800D02*
X128320800Y-91744800D01*
D43*
%TO.N,Net-(L1-Pad1)*%
X165280378Y-77914500D02*
X165508000Y-77914500D01*
X163307878Y-75942000D02*
X165280378Y-77914500D01*
X150556001Y-75942000D02*
X163307878Y-75942000D01*
%TO.N,Net-(L1-Pad2)*%
X164940500Y-75442000D02*
X165508000Y-76009500D01*
X150556001Y-75442000D02*
X164940500Y-75442000D01*
%TO.N,Net-(L2-Pad1)*%
X122686000Y-119558622D02*
X122686000Y-119060001D01*
X121666000Y-120578622D02*
X122686000Y-119558622D01*
X121666000Y-122428000D02*
X121666000Y-120578622D01*
%TO.N,Net-(L2-Pad2)*%
X123186000Y-122043000D02*
X123571000Y-122428000D01*
X123186000Y-119060001D02*
X123186000Y-122043000D01*
%TO.N,Net-(L3-Pad1)*%
X111764000Y-89367500D02*
X111315500Y-89816000D01*
X111764000Y-86040001D02*
X111764000Y-89367500D01*
%TO.N,Net-(L3-Pad2)*%
X112264000Y-86040001D02*
X112264000Y-88859500D01*
X112264000Y-88859500D02*
X113220500Y-89816000D01*
%TO.N,DRV_VM*%
X150556001Y-78323399D02*
X150545800Y-78333600D01*
X150556001Y-76442001D02*
X150556001Y-78323399D01*
X108712000Y-86106000D02*
X110286800Y-86106000D01*
D42*
X111263999Y-84139999D02*
X110286800Y-85117198D01*
X148655999Y-76442001D02*
X148655999Y-76443799D01*
X110286800Y-85117198D02*
X110286800Y-86106000D01*
D43*
X110286800Y-86106000D02*
X111198000Y-86106000D01*
D42*
X120878600Y-118467398D02*
X120878600Y-119126000D01*
X122185999Y-117159999D02*
X120878600Y-118467398D01*
D43*
X114122200Y-119126000D02*
X120878600Y-119126000D01*
X120878600Y-119126000D02*
X122120000Y-119126000D01*
D42*
X148655999Y-76443799D02*
X150545800Y-78333600D01*
D43*
X122120000Y-119126000D02*
X122185999Y-119060001D01*
X111198000Y-86106000D02*
X111263999Y-86040001D01*
D41*
%TO.N,+3V3*%
X125242999Y-107594400D02*
X125655001Y-107182398D01*
D42*
X147843800Y-101746600D02*
X147933800Y-101836600D01*
D41*
X132655000Y-96859400D02*
X132655000Y-94932398D01*
X128930400Y-100584000D02*
X129078800Y-100732400D01*
X128930400Y-100584000D02*
X125655001Y-97308601D01*
X125655001Y-105214565D02*
X125655001Y-106032399D01*
X136906000Y-95006200D02*
X136832198Y-94932398D01*
D43*
X106540889Y-141103711D02*
X105105200Y-142539400D01*
D41*
X140335000Y-95006200D02*
X136906000Y-95006200D01*
X121554200Y-107594400D02*
X125242999Y-107594400D01*
X128930400Y-100584000D02*
X128930400Y-101939166D01*
X106593689Y-115656311D02*
X93980000Y-128270000D01*
X145903926Y-105376726D02*
X143129000Y-105376726D01*
X129078800Y-100732400D02*
X134455002Y-100732400D01*
D43*
X106593689Y-115656311D02*
X106540889Y-115709111D01*
D41*
X136832198Y-94932398D02*
X132655000Y-94932398D01*
X125655001Y-92950001D02*
X125655001Y-94932398D01*
X125655001Y-107182398D02*
X125655001Y-106032399D01*
D43*
X106540889Y-115709111D02*
X106540889Y-141103711D01*
D41*
X146113000Y-103657400D02*
X142913989Y-103657400D01*
X128930400Y-101939166D02*
X125655001Y-105214565D01*
X128930400Y-100584000D02*
X132655000Y-96859400D01*
X120853200Y-106893400D02*
X121554200Y-107594400D01*
X125655001Y-97308601D02*
X125655001Y-94932398D01*
X147943800Y-107416600D02*
X145903926Y-105376726D01*
X147933800Y-101836600D02*
X146113000Y-103657400D01*
X123764000Y-91059000D02*
X125655001Y-92950001D01*
%TD*%
M02*
